<svg clip-rule="evenodd" fill-rule="evenodd" stroke-linecap="round" stroke-linejoin="round" stroke-miterlimit="1.5" viewBox="0 0 600 600" xmlns="http://www.w3.org/2000/svg" xmlns:xlink="http://www.w3.org/1999/xlink"><clipPath id="a"><path clip-rule="evenodd" d="m3440.35-3.069h599.4v599.4h-599.4z"/></clipPath><g transform="matrix(1.001 0 0 1.001 -3443.791 3.07203)"><path d="m3440.35-3.069h599.4v599.4h-599.4z" fill="none"/><g clip-path="url(#a)"><g transform="matrix(1.02237779139 0 0 1.02237779139 1905.9996728 -1819.8344379)"><circle cx="1793.9" cy="2070.14" fill="#7998c4" r="293.141"/><path d="m1793.9 1777c161.79 0 293.15 131.35 293.15 293.14s-131.36 293.14-293.15 293.14c-161.78 0-293.14-131.35-293.14-293.14s131.36-293.14 293.14-293.14zm0 17.11c152.35 0 276.03 123.69 276.03 276.03s-123.68 276.03-276.03 276.03c-152.34 0-276.02-123.69-276.02-276.03s123.68-276.03 276.02-276.03z" fill="#cbb477"/></g><g fill="#cbb477" fill-rule="nonzero" transform="matrix(.71477039662 0 0 .71477039662 2457.81841672 -1183.0437092)"><path d="m1713.22 1783.3-12.59 5.01-11.33-13.89-22.89 9.12 1.6 17.76-12.3 4.9-5.52-78.79 12.26-4.88zm-32.33-19.17-18.2-22.81 2.56 29.04z"/><path d="m1726.52 1781.49-6.53-30.99-31.07-37.98 14.26-3.01 20.35 26.14 7.82-32.07 14.02-2.95-13.2 47.41 6.5 30.89z"/><path d="m1779.61 1774.12-1.69-62.49-18.31.5-.35-12.73 49-1.32.34 12.73-18.26.49 1.68 62.49z"/><path d="m1819.23 1736.29c1.47-8.84 3.98-15.91 7.55-21.19 3.56-5.29 7.69-8.98 12.37-11.09 4.69-2.1 10.03-2.65 16.04-1.65 8.71 1.44 15.25 5.94 19.64 13.5 4.38 7.56 5.55 17.49 3.51 29.77-2.06 12.42-6.57 21.65-13.53 27.67-6.13 5.33-13.56 7.27-22.3 5.82-8.81-1.46-15.26-5.67-19.34-12.62-4.65-7.95-5.96-18.02-3.94-30.21zm12.74 1.6c-1.41 8.54-.86 15.21 1.68 20.02 2.53 4.81 6.19 7.61 10.98 8.4 4.83.8 9.18-.65 13.06-4.36 3.87-3.71 6.54-9.95 7.99-18.73 1.43-8.61.94-15.23-1.46-19.86-2.41-4.63-6.11-7.36-11.1-8.19-5-.82-9.41.58-13.24 4.21s-6.46 9.8-7.91 18.51z"/><path d="m1880.38 1785.62 27.78-69.92 11.26 4.47 4.92 56.02 18.55-46.69 10.78 4.28-27.78 69.92-11.64-4.62-4.97-54.77-18.12 45.6z"/></g><g fill="#cbb477" fill-rule="nonzero" transform="matrix(-.71477039662 0 0 -.71477039662 5022.2840738 1776.3098006)"><path d="m2150.13 1953.34-69.86 27.94-7.43-18.58c-2.77-6.93-4.25-11.59-4.44-13.98-.28-3.84.91-7.56 3.55-11.18s6.74-6.54 12.3-8.76c5.05-2.02 9.67-2.76 13.85-2.22s7.53 1.96 10.05 4.27c2.53 2.3 5.19 6.95 7.98 13.94l3.03 7.58 26.36-10.54zm-62.66 11.68 19.83-7.93-2.56-6.38c-1.71-4.29-3.18-7.09-4.4-8.38-1.22-1.3-2.81-2.13-4.78-2.49-1.96-.35-4.09-.07-6.38.84-2.32.93-4.07 2.22-5.25 3.87s-1.75 3.33-1.69 5.04 1.05 4.98 2.98 9.81z"/><path d="m2121.48 1887.37-62.78 41.47-14.46-21.88c-3.69-5.59-5.77-9.96-6.23-13.11-.45-3.14.2-6.4 1.96-9.78 1.77-3.38 4.59-6.35 8.48-8.92 4.91-3.24 9.64-4.68 14.19-4.3 4.56.37 8.65 2.47 12.29 6.3.13-3.28.66-6.27 1.6-8.99.93-2.71 3.02-6.94 6.28-12.69l8.11-14.35 8.18 12.38-8.68 16.56c-3.15 5.97-5.02 9.86-5.62 11.65s-.78 3.38-.54 4.78c.25 1.39 1.16 3.29 2.75 5.69l1.41 2.14 26.21-17.31zm-43.08 13.57-5.09-7.71c-3.11-4.71-5.3-7.57-6.56-8.58s-2.79-1.5-4.57-1.47c-1.79.03-3.72.73-5.8 2.11-2 1.32-3.35 2.78-4.03 4.38-.69 1.6-.8 3.24-.36 4.91.33 1.18 2.03 4.09 5.11 8.75l5.37 8.14z"/><path d="m2080.76 1830.04-56.86 49.27-8.14-9.39 56.87-49.26z"/><path d="m2058.24 1803.87-48.63 57.41-14.22-12.04 24.64-46.39-41.64 32-14.25-12.08 48.63-57.41 8.81 7.46-38.28 45.2 47.64-37.27 9.17 7.76-29 53.06 38.28-45.2z"/><path d="m1939.57 1724.15 12 6.28-3.14 17.64 21.83 11.42 12.42-12.79 11.73 6.14-56.15 55.54-11.69-6.12zm6.53 37.01-5.44 28.67 20.36-20.87z"/><path d="m1918.82 1716.38-19.73 72.61-25.31-6.87c-6.47-1.76-10.92-3.67-13.34-5.73s-4.08-4.94-4.99-8.64c-.91-3.71-.75-7.8.47-12.29 1.54-5.68 4.15-9.89 7.81-12.61 3.67-2.73 8.13-3.86 13.39-3.38-2.07-2.55-3.65-5.15-4.74-7.81-1.08-2.65-2.31-7.21-3.67-13.68l-3.38-16.13 14.31 3.89 4.42 18.17c1.59 6.56 2.75 10.71 3.48 12.46.73 1.74 1.65 3.05 2.76 3.94 1.1.88 3.05 1.7 5.82 2.46l2.48.67 8.23-30.31zm-23.37 38.65-8.92-2.42c-5.45-1.49-8.98-2.19-10.6-2.11-1.61.07-3.08.71-4.4 1.91s-2.3 3.01-2.96 5.42c-.63 2.31-.67 4.29-.13 5.95.55 1.65 1.54 2.96 2.98 3.92 1.02.67 4.23 1.73 9.61 3.19l9.41 2.56z"/><path d="m1833.42 1698.08-2.8 31.55 18.66 45.39-14.52-1.28-11.85-30.94-16.83 28.4-14.27-1.27 26.45-41.5 2.79-31.44z"/><path d="m1760.47 1721.23-11.76 3.43c-2.94-9.26-8.16-13.26-15.65-12-3.71.63-6.47 2.09-8.27 4.38-1.8 2.3-2.45 4.88-1.97 7.75.28 1.69.89 3.06 1.83 4.12.94 1.05 2.24 1.83 3.88 2.34 1.65.5 5.54 1.16 11.68 1.97 5.49.7 9.61 1.78 12.36 3.23 2.74 1.45 5.08 3.56 7.02 6.34s3.2 5.91 3.79 9.38c.68 4.05.37 7.85-.93 11.4-1.29 3.55-3.42 6.42-6.38 8.62-2.96 2.19-6.82 3.69-11.58 4.49-7.16 1.2-13.07.2-17.73-3.01-4.67-3.2-7.73-8.4-9.18-15.58l12.19-2.72c1.21 3.89 2.84 6.48 4.9 7.76 2.05 1.29 4.73 1.66 8.04 1.1s5.74-1.67 7.29-3.36c1.56-1.68 2.16-3.55 1.82-5.61-.34-2.03-1.44-3.6-3.29-4.71s-5.83-2-11.95-2.67c-6.47-.76-11.25-1.89-14.33-3.4-3.09-1.51-5.62-3.71-7.59-6.58-1.98-2.88-3.34-6.55-4.08-11-1.09-6.45-.01-12.2 3.22-17.25 3.22-5.05 9.06-8.28 17.49-9.7 14.92-2.51 24.64 4.59 29.18 21.28z"/><path d="m1656.29 1751.84-12.94-.04c-1.25-8.54-.53-15.4 2.17-20.59 2.7-5.2 7.04-8.94 13.02-11.23 7.5-2.87 14.7-2.31 21.58 1.68 7.93 4.62 14.06 12.61 18.41 23.95 4.59 11.98 5.48 22.39 2.68 31.24-2.45 7.67-7.63 13.03-15.56 16.07-6.45 2.47-12.7 2.33-18.73-.41-4.3-1.94-8.35-5.72-12.15-11.34l10.22-7.76c2.19 3.52 4.77 5.87 7.73 7.07 2.97 1.18 5.94 1.21 8.91.07 4.25-1.63 7.01-4.81 8.27-9.54 1.26-4.74.26-11.37-3.01-19.9-3.39-8.85-7.11-14.64-11.16-17.38-4.05-2.73-8.17-3.3-12.36-1.69-3.06 1.17-5.26 3.38-6.58 6.61-1.33 3.24-1.5 7.64-.5 13.19z"/><path d="m1612.52 1742.04 40.72 63.27-10.45 6.72-16.02-24.9-20.55 13.22 16.03 24.9-10.49 6.75-40.71-63.27 10.48-6.75 17.81 27.67 20.54-13.22-17.8-27.67z"/><path d="m1576.87 1810.79c6.33 6.33 10.62 12.49 12.84 18.47 2.23 5.98 2.83 11.48 1.82 16.51-1.02 5.03-3.68 9.7-7.99 14.01-6.24 6.24-13.71 8.95-22.41 8.11-8.69-.83-17.45-5.65-26.25-14.46-8.91-8.9-13.78-17.94-14.63-27.11-.77-8.08 1.97-15.26 8.24-21.52 6.31-6.32 13.49-9.11 21.52-8.39 9.17.85 18.12 5.64 26.86 14.38zm-8.71 9.43c-6.12-6.12-11.88-9.55-17.26-10.29s-9.79.61-13.23 4.05c-3.46 3.46-4.81 7.85-4.05 13.16.77 5.31 4.29 11.11 10.58 17.4 6.17 6.17 11.84 9.62 17.01 10.36 5.16.74 9.54-.68 13.12-4.27 3.58-3.58 5-7.98 4.28-13.21-.73-5.22-4.21-10.96-10.45-17.2z"/><path d="m1525.19 1864.78c7.57 4.8 13.1 9.87 16.57 15.22 3.48 5.34 5.28 10.58 5.38 15.72.11 5.13-1.46 10.27-4.72 15.41-4.73 7.46-11.43 11.73-20.1 12.81-8.67 1.09-18.26-1.7-28.78-8.37-10.64-6.74-17.37-14.49-20.2-23.26-2.52-7.71-1.41-15.31 3.33-22.8 4.78-7.54 11.18-11.84 19.17-12.88 9.14-1.18 18.92 1.54 29.35 8.15zm-6.44 11.11c-7.31-4.63-13.67-6.72-19.09-6.27-5.41.46-9.42 2.74-12.02 6.85-2.62 4.13-2.98 8.7-1.07 13.72 1.9 5.01 6.61 9.9 14.12 14.67 7.37 4.67 13.66 6.8 18.86 6.39s9.16-2.75 11.87-7.03 3.14-8.88 1.29-13.83c-1.85-4.94-6.5-9.77-13.96-14.5z"/><path d="m1451.54 1917.75 69.81 26.37-4.39 11.62-57.95-21.89-10.96 29-11.86-4.48z"/></g><g transform="matrix(1.02919 0 0 1.02919 1183.8890931 -2148.3518859)"><g stroke="#000" stroke-width="3"><path d="m2447.19 2437.1c16.49 11.32 13.76 15.95 3.39 42.95s-4.09 43.09-4.09 43.09l70.11.74s-16.71-37.49-15.05-69.72c1.67-32.22 33.33-44.86 15.41-76.18-4.18-7.31-17.88-21.53-26.03-22.37-13.05-1.35-16.82 11.49-16.94 11.56" fill="#cbb477"/><path d="m2611.18 2311.23c3.64 4.14-32.31 29.82-43.85 31.41-11.53 1.59-16.08-3.48-11.47-12.92 4.6-9.45 51.68-22.62 55.32-18.49z" fill="#265e54"/><path d="m2597.51 2317.95c-26.39 9.65-47.01 27.58-47.01 27.58" fill="#265e54"/><path d="m2618.94 2325.84c5.14 2.28 20.69 18.77 19.64 22.51-1.04 3.74-20.54.58-28.68 3.72-10.08 1.8-10.46-4.48-23.02-1.41-12.56 3.06-22.58-9.06-22.58-9.06s17.12-15.27 27.81-15.5c10.7-.24 21.69-2.53 26.83-.26z" fill="#265e54" transform="translate(1.13398 .60145)"/><path d="m2622.14 2342.84c-23.17-9.5-67.89-.19-67.89-.19" fill="#265e54"/><path d="m2547.19 2344.64c12.33-6.32 32.64-7.79 42.54 1.81 9.89 9.6 8.76 15.77 9.28 17.99.51 2.22 10.97 7.59-1.58 8.01-12.54.43-37.33-8.47-42.64-10.22-5.3-1.74-19.94-11.28-7.6-17.59z" fill="#265e54"/><path d="m2589.34 2364.18c-11.45-11.85-35.87-17.85-57.28-16.47" fill="#265e54"/><path d="m2435.22 2283.75c-15.3 7.81-13.48 23.8-18.57 27.66 16.97-6.67 34.6 4.96 44.44 9.43 9.83 4.48 16.16-29.3 16.16-29.3s-26.74-15.6-42.03-7.79z" fill="#265e54"/><path d="m2428.89 2304.57c33.34-15.88 52.23-3.16 52.23-3.16" fill="#265e54"/><path d="m2460.7 2263.32c6.86.28 35.45 5.01 39.98 26.84 4.54 21.84-6.86 21.95-14.52 19.91s-17.51-27.94-27.56-33.51c-14.43-8-7.04-13.61 2.1-13.24z" fill="#265e54"/><path d="m2464.99 2270.85c14.37 11.15 22.08 34.38 36.73 43.85" fill="#265e54"/><path d="m2439.93 2328.24c-2.59-.54 3.3-8.71 3.25-14s10.24-18.44 36.92-15.44c26.68 2.99 56.7 28.67 22.26 22.41-35.56-6.46-57.2 8.13-62.43 7.03z" fill="#265e54"/><path d="m2507.36 2317.72c-29.18-11.32-45.52-6.72-53.78-.81" fill="#265e54"/><path d="m2460.56 2335.82c10.35-23.28 45.51-28.2 60.93.29-14.54 3.7-21.85-6.35-38.1 2.24-6.05-7.47-16.11-7.71-22.83-2.53z" fill="#265e54"/><path d="m2528.12 2338.35c-10-5.8-34.23-14.36-50.65-10.92" fill="#265e54"/><path d="m2567.16 2326.64c-4.36 21.64-37.56 30.26-52.82 33.27-15.27 3.01-11.4-17.76 7.15-27.42 18.56-9.65 28.61-15.51 45.67-5.85z" fill="#265e54"/><path d="m2554.37 2332.49c-12.42 2.12-51.57 27.72-51.57 27.72" fill="#265e54"/><path d="m2493.47 2274.9c4.93-.36 32.31 48.88 25.24 61.01-7.07 12.14-20.6 3.87-24.72-9.3s-5.44-51.34-.52-51.71z" fill="#265e54"/><path d="m2498.15 2289.98c13.28 28.97 11.11 46.8 11.11 46.8" fill="#265e54"/><path d="m2565.56 2389.24c12.72-18.76-14.05-42.88-30.56-43.41s-28.31 11.45-37.2 29.17c-8.9 17.72 25.53-10.05 37.2-6.64 11.67 3.4 8.83 10.26 17.07 12.11 8.25 1.86 7.32 4.49 13.49 8.77z" fill="#265e54"/><path d="m2565.56 2389.24c12.72-18.76-14.05-42.88-30.56-43.41s-27.06 1.62-28.7 8.17c4.44 2.62 17.03 10.95 28.7 14.36 11.67 3.4 8.83 10.26 17.07 12.11 8.25 1.86 7.32 4.49 13.49 8.77z" fill="#265e54"/><path d="m1740.65 2140.67c.93-.67 16.24-1.03 16.24-1.03l-12.86 18.02s-4.31-16.32-3.38-16.99z" fill="#265e54" transform="translate(682.698 298.437)"/><path d="m2517.35 2345.01c-22.13 53.91-56.17 77.69-81.69 115.07-12.02 17.6-24.86 29.66-40.02 30.13 7.07-7.05 12.62-18.64 9.27-28.42 17.8-5.73 25.11-18.65 39.24-36.13 26.67-32.99 52.51-57.6 63.97-84.21s28.43-43.2 9.23 3.56z" fill="#265e54"/><path d="m2395.64 2490.21c21.37-2.89 34.07-28.46 9.27-28.42" fill="none"/><path d="m2544.47 2285.57c-.62 4.67-16.93 50.86-25.09 57.98-8.16 7.11-13.63-3.08-3.1-27.44s14-45.33 28.19-30.54z" fill="#265e54"/><path d="m2492.86 2272.11c0-3.84 13.44-11.75 15.82-11.46 2.37.28 9.11 11.03 6.62 13.89-2.49 2.85-22.44 1.41-22.44-2.43z" fill="#a23341"/><path d="m2577.97 2265.14c3.09-1.33 17.65 12.14 16.86 16.63-.78 4.48-19.21 1.09-26.63 0-7.42-1.1 6.67-15.31 9.77-16.63z" fill="#a23341"/><path d="m2546.37 2294.48c1.54 1.46-4.52 15.39-8.09 15.38s-8.8-17.42-8.07-18.16 14.63 1.31 16.16 2.78z" fill="#a23341"/><path d="m2562.81 2221.92c-.87 2.87 9.36 13.33 11.15 12.38 1.79-.94 8.36-15.29 6.81-18.5-1.56-3.22-17.09 3.25-17.96 6.12z" fill="#a23341"/><path d="m2551.35 2235.65c6.09-2.67 30.61-14 35.69-.92 5.08 13.07 2.88 29.38-.63 34.55-3.5 5.16-17.92 10.36-17.92 10.36l-22.02-18.99s-1.21-22.33 4.88-25z" fill="#a23341"/><path d="m2550.82 2260.65s22.45 15.91 26.54 19.66c4.08 3.75 4.73 9.22.68 14.46-4.05 5.25-11.99 8.34-26.44 8.11-14.44-.24-16.6-22.57-16.6-22.57z" fill="#a23341"/><path d="m2535 2224.18s-17.89-13.13-22.56-12.55c-4.67.59 2.29 31.66 2.29 31.66z" fill="#a23341"/><path d="m2542.26 2257.36s-9.15-33.63-25.32-29.77-22.63 17.38-23.2 23.46c-.58 6.08 1.69 14.99 15.56 16.04 13.86 1.04 25.7 2.19 25.7 2.19z" fill="#a23341"/><path d="m2532.82 2262.29c-25.21 3.35-37.23 12.43-21.02 30.16 16.2 17.73 30.77-.79 30.8-5.61.03-4.81 3.41-25.1 3.41-25.1s12.02-2.79-13.19.55z" fill="#a23341"/><path d="m2546.01 2253.95s13.51-12.89 16.84-17.84c3.34-4.96 10.51-16.46.58-22.39-9.92-5.93-24.25-8.81-30.61-4.63-6.36 4.17-11.45 11.56-6.18 19.65 5.28 8.09 19.37 25.21 19.37 25.21z" fill="#a23341" transform="translate(0 1)"/><path d="m2551.38 2244.03c7.56 2.79 9.41 9.09 6.53 18.34s-12.42 10.2-16.46 8.14c-4.03-2.07-11.53-8.93-7.45-17.06 4.03-8.05 10.72-11.88 17.38-9.42z" fill="#a23341"/><path d="m2566.89 2231.36c3.55.58 7.7 4.88 8.42 12.05.71 7.18.78 11.11.78 15.56s-4.11 8.37-4.11 8.37" fill="none"/><path d="m2571.49 2276.69c.4 5.88-1.68 8.63-4.6 12.31-2.93 3.68-15.03 1.88-15.03 1.88" fill="none"/><path d="m2541.45 2288.69c-3.31.49-18.18-.6-19.4-4.68-1.23-4.09-1.67-7.13-5.31-7.32" fill="none"/><path d="m2513.16 2267.34c-8.76-10.27-5.82-20.44 3.58-30.35" fill="none"/><path d="m2528.07 2230.55c1.23-3.62 10.59-13.17 17.75-10.89 7.15 2.28 7.48 5.45 15.79 4.19" fill="none"/><path d="m2501.55 2454.16c1.67-32.22 33.33-44.86 15.41-76.18-4.18-7.31-17.88-21.53-26.03-22.37-13.05-1.35-16.82 11.49-16.94 11.56" fill="#cbb477"/><path d="m2439.8 2409.54c.2-6.37 5.71-8.17 11.69-7.08 5.99 1.09 15.93 9.67 18.45 13.83 2.52 4.17-1.68 10.4-6.02 9.91-4.34-.48-24.33-10.28-24.12-16.66z" fill="#cbb477"/><path d="m2443.99 2395c.11-4.63 6.24-9.17 10.23-9.07s26.59 14.61 26.3 20.88c-.29 6.28-4.74 6.38-6.3 7.37-1.57.98-12.04-3.53-16.53-6.21-4.48-2.67-13.81-8.34-13.7-12.97z" fill="#cbb477"/><path d="m2486.27 2344.79c-.69-2.26 24.02-14.09 28.18-2.55 4.15 11.53.82 14.94-7.43 8.63s-20.06-3.83-20.75-6.08z" fill="#265e54"/><path d="m2459.39 2370.64c6.53-2.13 29 20.25 29 25.37s-2.55 8.76-7.24 8.5c-4.68-.27-20.69-10.9-26.06-18.01s-5.35-12.72 4.3-15.86z" fill="#cbb477"/><path d="m2469.75 2356.61c5.47 0 26.38 19.84 27.64 26.36 1.25 6.51-1.67 10.95-7.81 10.61-6.15-.35-28.59-22.47-28.73-26.74s3.43-10.23 8.9-10.23z" fill="#cbb477"/><path d="m2483.39 2363.12s-11.6 2.44-9.59 6.31c5.08 9.75 9.21 13.2 22.81 3.58" fill="#cbb477" transform="translate(-1)"/><path d="m2480.94 2360.84c1.82-1.27 6.43 4.54 6.43 7.1s-7.98 5.28-12.16 5.06c-4.17-.22-8.22-4.82-8.22-4.82s8.59-3.56 13.95-7.34z" fill="#cbb477"/></g><path d="m2505.55 2521.86 29.45-1.47 3.06 11.83-24.65 3.15h-24.71z" fill="#265e54"/><path d="m2528.15 2520.71c22.66-16.29 33.66.3 34.33 8.02s-18.01 10.84-29.36-2.58c-11.35-13.43-18.38-17.17-27.57-10.45-9.2 6.71-14 15.78-14 15.78" fill="#265e54" stroke="#000" stroke-width="3"/><path d="m2538.06 2531.98c-6.13 7.36-14.7 11.2-27.24-2.32-12.55-13.51-20.29-21.95-33.91-11.01-13.63 10.94 13.04 16.59 13.04 16.59" fill="#265e54" stroke="#000" stroke-width="3"/><path d="m2462.15 2535.45-9.72-15.97s4.07-7.05 11.21-7.13c7.13-.09 19.83 11.33 23.7 18.25 3.88 6.92 17.74 11.67 27.7 4" fill="#265e54" stroke="#000" stroke-width="3"/><path d="m2421.81 2532.18c-11.64-5.41-7.99-16.68 10.59-19.55 20.5-3.16 25.66 20.95 42.62 25.13 10.19 2.51 16.53-2.73 16.53-2.73" fill="#265e54" stroke="#000" stroke-width="3"/><path d="m2434.11 2531.56s-8.03 5.73-19.93 5.69c-11.9-.05-18.02-2.56-19.58-12.15s12.32-12.34 19.99-8.83c7.68 3.51 21.98 22.09 36.48 22.48 9.56.26 15.14-5.11 15.14-5.11" fill="#265e54" stroke="#000" stroke-width="3"/></g></g></g></svg>