<svg clip-rule="evenodd" fill-rule="evenodd" stroke-linecap="round" stroke-linejoin="round" stroke-miterlimit="1.5" viewBox="0 0 60 60" xmlns="http://www.w3.org/2000/svg"><g fill="none" transform="matrix(1.10863 0 0 1.10568 -8417.082 -2456.584)"><path d="m7592.32 2221.79h54.121v54.265h-54.121z"/><g stroke="#a23341" stroke-width="6.06" transform="matrix(.744135 0 0 .746122 2731.33 1794.69)"><path d="m6566.03 579.97c10.07 1.233 15.06 13.281 14.48 22.916-.58 9.634-5.2 15.129-14.48 15.129s-13.35-6.228-13.11-16.029c.24-9.802 3.04-23.249 13.11-22.016z"/><path d="m6584.26 612.799c10.47 3.365 14.66 23.334 14.66 23.334s-50.37 6.565-59.54 1.65c-.14-9.727 4.58-21.37 9.83-24.984 5.4 10.68 8.92 10.179 17.52 11.521 8.61 1.342 11.82-2.999 17.53-11.521z"/></g></g></svg>