<svg clip-rule="evenodd" fill-rule="evenodd" stroke-linecap="round" stroke-linejoin="round" stroke-miterlimit="1.5" viewBox="0 0 717 717" xmlns="http://www.w3.org/2000/svg" xmlns:xlink="http://www.w3.org/1999/xlink"><clipPath id="a"><path clip-rule="evenodd" d="m18.232 153.634h716.009v716.009h-716.009z"/></clipPath><clipPath id="b"><circle clip-rule="evenodd" cx="399.227" cy="486.875" r="346.859"/></clipPath><clipPath id="c"><path clip-rule="evenodd" d="m392.256 425.131c16.082-.609 31.352.431 34.992 10.872 3.639 10.441.045 128.228 23.681 196.549s42.739 125.223 42.739 125.223-64.351 6.156-114.744 14.438c-50.393 8.281-74.792 8.91-92.366 6.657s-36.293-17.21-36.293-17.21 66.292-122.498 79.771-168.193c13.478-45.696 32.911-149.745 34.715-153.806 1.805-4.062 11.424-13.92 27.505-14.53z"/></clipPath><g transform="translate(-18.2318 -153.634)"><path d="m18.232 153.634h716.009v716.009h-716.009z" fill="none"/><g clip-path="url(#a)"><g transform="matrix(1.02564 0 0 1.02564 -32.9966 12.9119)"><circle cx="399.227" cy="486.875" fill="#fff" r="346.859"/><g clip-path="url(#b)"><path d="m637.276 741.867c-37.656-8.44-39.208-10.786-88.88 11.18s-291.815 73.471-358.578-32.578c-66.763-106.05-129.011-166.255-150.289-155.568-21.279 10.688-36.8 32.971-36.8 32.971l131.216 233.154 183.17 56.672 177.416-19.771 106.599-70.604s73.802-47.016 36.146-55.456z" fill="#fff" stroke="#000" stroke-width="4.5" transform="matrix(.974996 0 0 .974996 32.3975 -11.9708)"/><g stroke="#000" stroke-width="1.3" transform="matrix(.974996 0 0 .974996 32.3975 -11.9708)"><path d="m240.217 569.58c7.76 19.728 20.778 54.906-3.197 31.433s-4.563-51.16 3.197-31.433z" fill="#922425"/><path d="m202.313 506.957c-4.67-7.202-14.256-17.699-20.34-22.316-6.084-4.616-6.068 4.266.302 12.269 6.37 8.002 11.629 17.35 11.629 17.35s13.078-.102 8.409-7.303z" fill="#466078"/><path d="m237.502 484.91c0 8.838-1.782 18.513-15.914 14.524-14.131-3.989 15.914-23.361 15.914-14.524z" fill="#b86f26"/><path d="m248.806 507.791c-9.853-2.386-16.981-2.079-13.347 8.762 3.634 10.84 16.681 8.467 21.236 8.098s3.849-14.017-7.889-16.86z" fill="#c9bd5a"/><path d="m286.183 562.747c7.75-1.38 17.484-27.6 16.464-31.606-1.019-4.007-3.823-5.768-7.026.745-3.202 6.514-8.682 24.682-9.438 30.861z" fill="#45728f"/><path d="m314.472 469.137c2.307-3.372 18.423 16.539 17.196 24.926-1.474 10.07-20.291-20.402-17.196-24.926z" fill="#8b3651"/><path d="m322.862 415.115c-3.316 5.991-4.87 10.444-4.87 10.444l11.014 3.131 12.031-9.763s-14.86-9.804-18.175-3.812z" fill="#dbcd64"/><path d="m298.488 411.327c-1.296 3.884-4.432 12.426-4.432 16.181s-5.634.651-5.634.651 11.363-20.716 10.066-16.832z" fill="#54616e"/><path d="m308.875 382.806c3.503 1.164 3.312 15.876 3.264 19.927-.049 4.051-18.496-6.852-18.496-6.852s11.728-14.239 15.232-13.075z" fill="#43657e"/><path d="m272.129 450.774c-.32 3.049-8.693 15.456-10.537 17.23s-10.331-4.573-10.331-4.573 21.189-15.706 20.868-12.657z" fill="#dbcd64"/><path d="m281.925 404.604c-4.987 4.586-12.139 12.553-14.723 11.162-2.584-1.392 4.889-18.282 4.889-18.282s14.82 2.534 9.834 7.12z" fill="#bfb843"/><path d="m240.799 391.983c3.114 4.001 6.389 19.832.721 26.09-12.148-8.37-6.351-25.585-6.351-25.585s2.516-4.506 5.63-.505z" fill="#ba6261"/><path d="m221.258 414.933c4.394 8.613 2.058 19.365-6.388 11.146-8.447-8.218-12.641-21.75-7.645-23.102 4.995-1.353 9.639 3.343 14.033 11.956z" fill="#61859b"/><path d="m196.06 344.282c8.102 4.296 10.384 17.837 12.699 24.386-4.408 2.351-5.377 8.89-8.467 4.423-3.089-4.468-3.853-20.366-4.232-28.809z" fill="#c9803b"/><path d="m193.268 377.301c5.666-1.916 12.723-9.9 14.988-10.156 2.264-.256-5.826 12.815-12.358 18.359-6.531 5.544-8.295-6.286-2.63-8.203z" fill="#c9803b" transform="translate(.4275 .3285)"/><path d="m281.431 381.189c2.081-4.308-27.174-31.518-35.079-21.205s32.998 25.513 35.079 21.205z" fill="#4f7383"/><path d="m249.143 380.528c-1.325-5.682-2.478-15.967 5.538-22.824 5.49-4.696 4.877-7.679 4.877-7.679s4.563 9.718-1.772 21.243c-6.336 11.525-7.317 14.941-8.643 9.26z" fill="#4f7383"/><path d="m331.881 350.736c5.64-4.773 15.21 2.898 5.107 11.357s-10.746-6.584-5.107-11.357z" fill="#baaf51"/><path d="m323.067 335.061c3.709 5.91 27.342-14.306 22.163-19.804-5.179-5.497-27.234 11.725-22.163 19.804z" fill="#3f647a"/><path d="m323.074 334.674s-15.783-15.906-9.778-22.108c6.005-6.203 19.358 11.22 19.358 11.22" fill="#3f647a"/><path d="m350.733 322.786c5.501 5.221 15.004 14.909 4.041 16.415-10.962 1.506-10.917 1.313-10.917 1.313" fill="#e8bc8b"/><path d="m348.903 353.906c8.408 0 22.411 7.365 12.643 10.496-9.769 3.131-12.76.664-12.76.664" fill="#835063"/><path d="m386.61 374.176c-12.052 6.482-21.634 4.339-24.033 4.428-2.4.09 20.222-20.183 20.222-20.183" fill="#7d9295"/><path d="m393.01 324.011c7.85 0 24.269-4.752 23.695-12.284s-17.508-6.776-17.508-6.776" fill="#8b4b65"/><path d="m340.307 281.903c1.83-5.056 11.095-17.263 14.56-10.107 3.466 7.156-7.327 22.764-17.54 29.778-2.11-4.198-4.824-7.557-3.828-10.441.996-2.885 4.978-4.174 6.808-9.23z" fill="#899ea3"/><path d="m420.596 272.337c1.334 2.265-28.838 34.374-36.211 18.569-7.374-15.805 34.877-20.835 36.211-18.569z" fill="#7e515e" transform="translate(1)"/><path d="m401.822 223.224c4.14-4.17 20.629.334 25.574 2.634s-8.551 20.631-15.33 14.545c-6.779-6.087-14.385-13.009-10.244-17.179z" fill="#b78143"/><path d="m472.294 289.894c.271 9.884-4.713 18.899-25.801 24.829-21.088 5.929-2.53-11.674 7.477-14.087 10.008-2.413 18.194-15.49 18.324-10.742z" fill="#5f8497"/><path d="m401.727 365.746c0-4.548 3.075-6.859 8.411-6.859 5.335 0 7.96 11.237 2.958 11.237-5.003 0-11.369.171-11.369-4.378z" fill="#dcc2c1"/><path d="m436.467 404.348c1.855 2.787 14.678-6.641 16.657-9.632 1.978-2.991-10.103-1.717-12.454.334-2.064 1.801-6.057 6.51-4.203 9.298z" fill="#687c7d"/><path d="m462.288 371.232c3.542-.034 7.418-.148 7.449 1.619s-9.58 9.455-12.517 8.813c-2.938-.643-3.697-5.725-2.069-7.519s3.595-2.879 7.137-2.913z" fill="#687c7d"/><path d="m495.185 365.125c1.517 2.389 4.818 20.667 1.584 21.158-3.235.491-12.344-7.274-11.323-19.959 2.384-2.605 8.222-3.588 9.739-1.199z" fill="#6f8487"/><path d="m457.734 342.005c.771-6.564 11.885-5.394 16.702-2.962 4.818 2.432.793 11.476-2.377 11.476-3.171 0-15.097-1.95-14.325-8.514z" fill="#9e6c78"/><path d="m504.093 339.286c2.262 1.184 1.036 8.422-4.96 9.159-5.997.738-12.557.396-10.608-4.205 1.949-4.6 9.121-8.331 15.568-4.954z" fill="#a76561"/><path d="m522.901 331.981c-3.117 2.716-12.505 3.298-14.734.444-2.23-2.853-.044-10.369 4.125-11.533 8.516-2.377 13.726 8.374 10.609 11.089z" fill="#bf9268"/><path d="m507.717 316.907c6.439 0 15.474 1.312 14.764 5.62s-17.298 6.151-24.919 2.365c-7.62-3.785 3.716-7.985 10.155-7.985z" fill="#bf9268"/><path d="m489.548 301.415c3.125-3.73 22.296-3.948 14.378 4.935-7.918 8.884-21.944 4.096-14.378-4.935z" fill="#7f8e93"/><path d="m542.467 299.192c4.122 2.059 6.833 11.361-10.203 15.178-.221-11.436 6.081-17.236 10.203-15.178z" fill="#ab5c55"/><path d="m495.156 420.149c11.354.085 17.544 2.491 12.151 6.921s-17.039 5.091-25.636-1.574c-8.598-6.665 2.13-5.432 13.485-5.347z" fill="#889c9d"/><path d="m544.947 400.631c-2.261 5.579-13.261 6.777-15.172 2.523-1.912-4.254 4.674-16.616 4.674-16.616l9.943 1.588s2.817 6.927.555 12.505z" fill="#946b6f"/><path d="m572.754 336.96c3.6 3.302-14.229 22.643-14.229 22.643s-4.983.575-.328-9.374c4.654-9.95 12.963-12.703 14.557-13.269z" fill="#a59c37"/><path d="m581.702 415.07c10.005-.477 12.919-15.944 11.741-27.757s-10.095 2.229-10.095 2.229 3.505 16.444-1.646 25.528z" fill="#95636e"/><path d="m609.992 383.385c5.368-4.013 14.044-4.026 16.712-2.35.085 4.65-10.421 6.144-10.421 6.144s-11.659.22-6.291-3.794z" fill="#626763"/><path d="m530.195 466.212c0 3.783-.793 14.47-6.961 17.825-6.169 3.354 7.398 2 9.487-7.465 2.088-9.465 11.44-11.041 11.44-11.041s-13.966-3.101-13.966.681z" fill="#8a9392"/><path d="m577.743 422.926c1.142 14.228-9.701 29.342-16.596 31.463-6.895 2.122-4.925-4.21.124-11.651 5.048-7.442 10.367-12.332 16.472-19.812z" fill="#a15651"/><path d="m581.312 467.274c-7.691 6.867-9.112 15.042-9.023 22.378.089 7.337-8.395 16.054-15.804 8.218 8.176-6.866 6.123-9.605 9.818-21.777 3.696-12.171 9.419-9.231 9.419-9.231s13.281-6.454 5.59.412z" fill="#628080"/><path d="m601.814 471.358c-5.124 13.982-2.701 34.835-7.252 34.748-4.551-.088-8.351-24.117 2.117-35.715 10.468-11.597 10.259-13.016 5.135.967z" fill="#875260"/><path d="m636.483 470.484c2.622 19.475 18.145 37.387 35.509 13.866.614-3.927-7.711 5.712-15.085-.784-7.373-6.496-11.476-19.636-11.476-19.636s-11.57-12.921-8.948 6.554z" fill="#86989b"/><path d="m678.55 434.717c2.778.647 6.142 12.749 1.994 12.749s-8.528-1.07-8.489-4.391c.038-3.322 3.718-9.005 6.495-8.358z" fill="#b4a759"/><path d="m472.383 508.515c-9.614 10.028-21.427 16.961-21.353 18.419.074 1.457 12.883 2.101 17.612-4.482 4.728-6.583 10.781-12.904 10.447-16.337s2.907-7.629-6.706 2.4z" fill="#6a7571"/><path d="m523.428 506.833c-4.091 2.984-29.63 16.326-29.561 17.868.069 1.543 20.85-.253 25.4-3.618 4.549-3.365 10.608-11.837 10.608-11.837s-2.356-5.398-6.447-2.413z" fill="#814151"/><path d="m589.557 511.036c1.122.876-9.67 8.902-9.67 8.902s-5.564-2.788-3.69-4.189c1.873-1.402 12.238-5.589 13.36-4.713z" fill="#b3ac38"/><path d="m544.589 563.246c.955 6.344 38.201 1.074 42.228-14.528 4.026-15.602-14.001-3.878-22.027-.097-8.027 3.782-21.156 8.28-20.201 14.625z" fill="#708f99"/><path d="m592.789 563.266c-5.282 6.835-35.422 33.804-36.969 31.6-1.548-2.204-.753-5.122-.753-5.122s-1.153 16.352 8.506 11.543c9.66-4.809 10.629-14.03 15.294-17.445 4.666-3.414 15.631-12.898 17.337-20.433s1.866-6.977-3.415-.143z" fill="#bb8338"/><path d="m546.491 376.27c5.37-.107 15.675 4.049 7.393 11.468-8.281 7.418-18.78 5.84-17.818.232.963-5.607 5.054-11.593 10.425-11.7z" fill="#946b6f"/><path d="m539.623 304.398c1.022 2.528-12.045 10.069-22.029 4.065-12.99-7.814 19.507-10.304 22.029-4.065z" fill="#ab5c55"/><path d="m491.329 342.61c3.42 1.912 5.209 7.398-2.118 8.529-7.328 1.131-9.933 3.201-5.986-8.062 3.022-.408 4.684-2.379 8.104-.467z" fill="#a76561"/><path d="m479.943 360.544c4.398-1.603 13.713-5.744 11.648 1.448s-11.571 5.669-13.982 5.501c-2.41-.168-2.064-5.346 2.334-6.949z" fill="#6f8487"/><path d="m451.966 397.447c-2.927-.668-20.08-9.05-11.231-12.713 8.848-3.663 21.789-9.166 26.016-5.678 4.228 3.489-11.857 19.058-14.785 18.391z" fill="#687c7d"/></g><path d="m430.986 472.215c8.188 23.924 21.128 39.658 54.183 30.083 33.054-9.576 84.231 19.596 97.333 45.784 13.102 26.187 36.878 33.901 46.914 27.713 10.037-6.187 16.758-13.211 7.102-18.307-9.657-5.096-10.649 7.557-26.258-.784-15.61-8.341-10.37-23.141-26.284-36s-30.523-20.445-46.411-27.768-37.87-4.971-54.581-1.654c-16.711 3.318-28.435-4.531-28.951-18.508-.515-13.976-8.893-29.757-8.893-29.757s25.443 12.882 38.581 15.809c13.138 2.928 42.651 4.711 51.7 7.709 9.05 2.997 16.797-3.82 30.326-.289 13.528 3.531 43.167 4.94 68.32.034 25.154-4.907 47.86-10.44 49.492-19.537-9.192-8.815-11.638-.88-25.187.391-13.55 1.271-24.534 12.557-66.557 10.549-42.024-2.008-22.693-1.281-50.526-6.799-27.834-5.518-21.461 1.857-43.972-3.039-22.51-4.896-24.922-15.13-41.677-14.927 20.12 1.875 40.628-14.675 51.693-20.506 11.065-5.83 27.88-16.091 33.172-26.614 5.291-10.524 20.294-17.013 36.427-1.656 16.133 15.356 41.203 17.151 44.297 11.859 3.093-5.292-2.92-9.526-14.526-12.458-11.607-2.933-16.039-15.904-30.383-21.659s-13.92-7.308-29.534-3.219c-15.615 4.089-42.341 36.909-58.677 44.268-16.336 7.36-12.675 11.36-23.573 13.693-10.899 2.333-30.612 9.458-30.612 9.458s29.943-19.286 34.404-30.789c4.461-11.502 10.106-48.263 21.086-62.37 10.979-14.106 18.309-23.302 29.911-29.484s28.276-13.32 22.435-19.648-13.544.041-26.149 7.281c-12.604 7.239-26.843 23.656-34.822 38.752-7.98 15.097-11.711 46.987-22.245 59.178-10.534 12.19-26.724 31.125-38.196 29.921-11.471-1.203-1.552-11.481 1.026-20.588 2.579-9.107 4.383-31.69 8.75-53.232 4.368-21.542 22.615-35.807 26.016-51.521 3.401-15.713 7.94-42.752-2.648-40.672-10.589 2.081-4.938 23.396-8.818 33.425s-10.573 20.245-18.3 33.258c-7.726 13.013-13.966 32.346-15.341 42.666-1.375 10.321-8.843 22.862-10.159 30.243-1.315 7.38-.562 15.914-1.974 19.77-4.356-10.849-2.026-35.789-4.356-51.336-2.331-15.546 7.221-60.679 9.745-72.304 2.523-11.625 10.177-36.354 23.924-49.042 13.747-12.687 27.721-21.896 21.88-25.898-5.841-4.003-16.953 5.073-27.661 11.284-10.709 6.21-20.157 29.487-26.378 38.356-6.221 8.87-.734 30.959-4.82 46.094s-7.675 24.393-8.703 36.807c-1.029 12.414 4.06 19.282.729 31.664-3.331 12.383-1.294 40.055-10.005 40.36-8.711.304 3.869-13.039-.151-27.854-4.021-14.815-14.336-20.032-19.795-33.342-5.458-13.309-5.455-23.119-2.799-39.138 2.656-16.018-4.12-32.885-6.333-43.804-2.214-10.92-8.964-19.399-11.503-8.425s7.44 24.407 7.601 38.841c.162 14.435 2.576 27.034-4.479 34.938-7.26 10.617-1.828 22.601-.778 29.008 1.049 6.406 13.185 2.768 17.078 17.5s10.541 25.492 6.031 36.607c-6.56-17.368-14.596-24.261-32.669-23.563s-23.266-2.836-37.521-9.292c-14.255-6.455-23.875-12.114-39.388-13.122s-27.888 12.328-50.06 11.862c-12.362-12.662.505-22.914-13.062-19.951-13.568 2.964-3.368 20.959 3.817 31.052 7.185 10.094 22.584 5.862 36.498 1.25 13.914-4.611 18.82-14.539 43.922-2.588 25.101 11.95 44.864 21.331 56.484 18.708 11.62-2.622 28.174 13.604 10.357 10.805-17.818-2.8-14.542-4.135-41.227-2.091s-31.013 2.195-48.711 20.656-34.208 54.346-47.437 63.701c-13.229 9.354-20.875-1.769-32.214 4.044-11.338 5.812-6.836 8.89 7.136 14.805 13.971 5.914 31.398-4.776 40.302-11.516 8.903-6.74 15.718-26.25 30.596-42.404 14.878-16.153 27.339-26.002 40.018-28.367 12.68-2.364 50.154-10.474 51.571-8.177 1.416 2.297.71 12.424.835 22.281.136 10.709-6.867 46.459-24.875 52.367-18.007 5.909-21.158 12.667-23.388-5.01-2.229-17.677-4.406-39.977-17.669-40.839-13.263-.861-16.344 12.907-16.729 35.066-.385 22.158-.945 19.927-7.984 31.255s-12.493 21.586-18.964 25.666c-6.471 4.081-8.833 14.378-18.635 24.019-9.802 9.64-36.375 24.622-36.93 29.997s24.339 9.885 35.003.474 15.278-29.284 30.294-40.307c15.015-11.024 25.953-23.138 27.726-35.271 1.774-12.133 1.985-55.427 5.292-54.625s2.859 42.151 17.596 49.26c14.737 7.11 35.995 1.112 35.995 1.112l46.031-50.961s52.662-34.596 60.849-10.671z" fill="#5f432e" stroke="#000" stroke-width="4.5" transform="matrix(.974996 0 0 .974996 32.3975 -11.9708)"/><path d="m343.427 458.221s1.279 14.37 1.667 33.607-25.852 35.253-26.058 47.383c-.205 12.13-6.179 21.789-6.919 40.289-.739 18.5-21.773 53.052-29.26 73.479s-19.886 61.229-25.927 71.026c-6.042 9.797-25.43 32.8-21.422 41.492 4.008 8.693 26.255 21.565 39.195 22.493 12.94.927 30.391 12.182 43.602 5.507 13.211-6.674 47.445-2.591 78.958-6.737 31.513-4.145 56.367-2.601 78.568-6.216 22.2-3.614 43.406-11.552 43.406-11.552s-24.867-34.469-33.076-59.854c-8.208-25.385-30.929-107.289-35.424-126.161-4.495-18.873-5.344-45.206-5.729-57.011-.386-11.805-1.641-46.437-4.016-60.008-2.375-13.57-4.325-22.343-4.325-22.343" fill="#5f432e" stroke="#000" stroke-width="4.5" transform="matrix(.974996 0 0 .974996 32.3975 -11.9708)"/><g transform="matrix(.974996 0 0 .974996 32.3975 -11.9708)"><path d="m392.256 425.131c16.082-.609 31.352.431 34.992 10.872 3.639 10.441.045 128.228 23.681 196.549s42.739 125.223 42.739 125.223-64.351 6.156-114.744 14.438c-50.393 8.281-74.792 8.91-92.366 6.657s-36.293-17.21-36.293-17.21 66.292-122.498 79.771-168.193c13.478-45.696 32.911-149.745 34.715-153.806 1.805-4.062 11.424-13.92 27.505-14.53z" fill="#4d7ba1"/><g stroke="#000"><g clip-path="url(#c)" stroke-width="1.25"><path d="m445.323 771.551c-30.762-163.815-10.757-322.493-1.057-384.216 9.701-61.723-42.992-4.816-42.992-4.816l-90.336 49.56-120.099 340.188 231.748 22.875s53.498 140.223 22.736-23.591z" fill="#c17175"/><path d="m408.964 775.631c-5.14-40.148-5.823-17.854-3.643-84.351s8.297-127.62 11.87-186.875 13.94-82.57 13.94-82.57l-86.979-5.956-133.727 358.831 107.026 32.192s96.654 8.878 91.513-31.271z" fill="#b45a4a"/><path d="m405.933 421.694c9.568 39.779-3.932 122.388-20.476 185.104-16.545 62.716-32.56 184.373-35.277 200.169-2.716 15.797-138.325-36.791-138.325-36.791l116.151-339.992s68.359-48.269 77.927-8.49z" fill="#718542"/><path d="m392.644 419.775c6.063 16.437 7.216 125.284-32.146 223.981-39.362 98.698-7.278 127.388-3.682 145.881 3.596 18.492-153.367-4.487-153.367-4.487l140.073-371.446s43.06-10.367 49.122 6.071z" fill="#80576f"/><path d="m377.558 419.592c13.792 44.269 11.664 107.047-12.315 174.068s-32.839 87.31-35.023 121.88c-2.185 34.571-17.868 58.276-27.378 80.464-9.51 22.187-104.969-31.229-104.969-31.229l128.938-341.011s36.955-48.44 50.747-4.172z" fill="#ccc35e"/><path d="m360.548 432.941c15.338 7.407 31.817 29.86 7.315 130.461-24.503 100.602-28.539 75.688-39.393 101.162-10.855 25.474-41.612 90.817-81.737 110.338s-39.599-38.177-39.599-38.177 138.075-311.19 153.414-303.784z" fill="#d19e48"/></g><path d="m392.256 425.131c16.082-.609 31.352.431 34.992 10.872 3.639 10.441.045 128.228 23.681 196.549s42.739 125.223 42.739 125.223-64.351 6.156-114.744 14.438c-50.393 8.281-74.792 8.91-92.366 6.657s-36.293-17.21-36.293-17.21 66.292-122.498 79.771-168.193c13.478-45.696 32.911-149.745 34.715-153.806 1.805-4.062 11.424-13.92 27.505-14.53z" fill="none" stroke-width="1.3"/></g></g><g stroke="#000"><path d="m604.282 290.451c.77 14.479-3.543 24.945-10.907 31.192s-18.739 4.894-27.232-4.832-14.318-12.905-11.037-25.097c3.282-12.192 6.79-16.69 9.558-23.154 2.767-6.465 20.463-9.33 27.47-3.265 7.007 6.064 11.377 10.678 12.148 25.156z" fill="#e7d51b" stroke-width="4.5" transform="matrix(.974996 0 0 .974996 32.3975 -11.9708)"/><path d="m234.864 297.311c-5.158-9.325-24.096-49.793-26.12-53.329" fill="none" stroke-width="4.5" transform="matrix(.974996 0 0 .974996 32.3975 -11.9708)"/><path d="m205.367 246.894c3.21-10.955 22.267-23.274 32.125-9.736s-2.444 30.863-16.294 31.357" fill="none" stroke-width="4.5" transform="matrix(.974996 0 0 .974996 32.3975 -11.9708)"/><path d="m269.268 269.234c-2.688-4.725-16.036-43.129-17.521-48.556-1.485-5.428 19.098-8.726 19.098-8.726" fill="none" stroke-width="4.5" transform="matrix(.974996 0 0 .974996 32.3975 -11.9708)"/><path d="m286.496 254.323c.909-10.473 13.411-53.407 13.688-52.831.278.576 6.876 44.147 9.601 50.311" fill="none" stroke-width="4.5" transform="matrix(.974996 0 0 .974996 32.3975 -11.9708)"/><path d="m289.564 239.148 15.632-8.175" fill="none" stroke-width="4.5" transform="matrix(.974996 0 0 .974996 32.3975 -11.9708)"/><path d="m279.022 227.294c-4.288 0-22.46 7.944-22.46 7.944" fill="none" stroke-width="4.5" transform="matrix(.974996 0 0 .974996 32.3975 -11.9708)"/><g stroke-width="4.5" transform="matrix(.974996 0 0 .974996 32.3975 -11.9708)"><path d="m66.038 435.301c-3.161 4.417-.534-3.386 4.546-.567 5.079 2.819 11.051 7.281 11.051 7.281s-2.926-6.514-3.439-12.612c-.512-6.099-.358-11.914-2.63-8.995-2.271 2.918.217 2.675.217 2.675" fill="none"/><path d="m84.676 444.422c6.943-6.897 15.65-17.222 25.962-9.083 10.313 8.139-3.318 22.495-3.318 22.495s9.737-9.034 22.493-4.885c17.925 5.65-5.415 25.467-5.415 25.467l9.254 13.036-9.589-4.151s-15.262 10.891-24.636 9.544c-9.373-1.346-13.192-18.982-7.357-27.429-13.758 12.065-17.958 3.16-18.523-1.676s4.185-16.42 11.129-23.318z" fill="#394869"/><path d="m132.702 491.194-47.601-45.839" fill="none"/></g><g stroke-width="4.5" transform="matrix(.974996 0 0 .974996 32.3975 -11.9708)"><path d="m125.849 338.898c6.087-.159 8.166 5.445 8.646 7.717.48 2.273-5.914 7.63-5.914 7.63s9.557-6.411 12.737-.543 10.333 7.913 2.158 16.906c-8.175 8.994-12.419 12.51-17.197 11.214-4.777-1.296-9.912-3.422-7.553-12.525 2.359-9.104 4.127-9.629 4.127-9.629s-11.849 14.055-13.605 3.024c-1.757-11.031 1.211-12.224 5.524-16.214 4.313-3.991 4.99-7.421 11.077-7.58z" fill="#5e8eb0"/><g fill="none"><path d="m110.462 328.095c.153-3.286 3.205-4.386 2.168-.092-1.036 4.294 2.298 16.088 2.298 16.088s-15.855-.144-16.425-2.56c-.569-2.417 2.818-4.292 2.223-1.86"/><path d="m143.945 382.413s-24.079-31.301-29.017-38.322"/></g></g><g stroke-width="4.5" transform="matrix(.974996 0 0 .974996 32.3975 -11.9708)"><path d="m488.475 555.66c5.137.444 12.197 9.691 12.197 13.431s-9.843 10.673-9.843 10.673 15.863-1.005 20.951 9.149c5.089 10.155.851 16.723-13.73 22.217-14.58 5.493-18.172-4.834-21.966-10.659s1.656-13.883 4.463-14.178c-.932 3.823-20.562 12.858-17.556-7.228 3.006-20.085 13.911-15.731 13.911-15.731s6.435-8.119 11.573-7.674z" fill="#9f5f79"/><g fill="none"><path d="m488.088 527.888c-.581-2.927 2.722-6.095 2.907-1.656.186 4.44-5.044 20.735-8.931 28.934-3.888 8.199-6.513 7.724-18.747-2.71-12.235-10.434-.526-8.216-5.139-5.18s-2.463.527-2.463.527"/><path d="m472.488 539.179c3.674-1.328 14.817 10.425 4.867 14.81s-9.965.356-9.52-6.173c.446-6.529.979-7.31 4.653-8.637z" transform="translate(.239977 -.368271)"/><path d="m471.586 546.356c-.647 1.09 1.069.567 1.069.567"/><path d="m476.594 544.298c.3.836 1.348-.813 1.348-.813"/><path d="m508.437 608.703c.041 2.87 1.222 12.686-.205 13.655-1.427.968-6.033-8.299-15.126-31.976s-13.893-27.423-13.893-27.423"/></g></g><g stroke-width="4.5" transform="matrix(.974996 0 0 .974996 32.3975 -11.9708)"><path d="m557.501 618.658c2.558 0 13.526-.897 17.226 5.425 3.699 6.321 2.888 14.888-1.973 15.169-4.86.281-9.817-.111-9.817-.111s9.479.759 12.198 7.249c2.72 6.491 7.527 13.701-4.604 12.236s-14.435-3.557-14.435-3.557l-.993 9.416-1.014-14.175s-6.4 7.038-11.693-.053c-5.292-7.091-3.078-12.307 6.675-19.374-10.004 3.647-10.841-3.906-5.292-10.828 5.548-6.922 11.164-1.397 13.722-1.397z" fill="#747f43"/><g fill="none"><path d="m565.658 605.121c1.247.202.11-3.251-2.484.352-2.595 3.602-5.638 9.612-5.638 9.612s-4.577-6.52-6.316-10.155c-1.74-3.635-2.261-1.884-2.261-1.884"/><path d="m557.246 619.05-.786 35.665"/></g></g><g fill="none" stroke-width="4.5" transform="matrix(.974996 0 0 .974996 32.3975 -6.12083)"><path d="m61.422 632.713 18.485-26.878s8.859 12.51 6.047 16.658c-2.812 4.147-8.329 8.752-16.289-1.765"/><path d="m92.469 665.869c-8.615 1.544-12.645-3.367-8.916-11.826 3.729-8.46 9.441-10.763 9.441-10.763s-10.101-10.765-17.39-7.024c-7.289 3.742-4.688 12.311-.287 15.398 4.4 3.087 8.236 2.389 8.236 2.389"/><path d="m117.144 664.522c-8.19-5.137-8.812-11.909-27.295 16.204"/><path d="m112.307 675.837c4.888 5.022 12.71 2.026 10.407-4.268-2.304-6.294-16.805 8.545-16.328 15.977.477 7.433 2.608 11.325 10.563 8.501"/><path d="m124.53 691.934-10.517 14.158s5.567-13.25 13.898-6.152c8.332 7.098.276 16.702-2.248 21.664"/><path d="m156.014 692.863c-15.093 10.762-25.463 44.232-5.97 31.278"/><path d="m158.05 709.206-16.176-10.968"/><path d="m193.255 783.996c-11.859 4.828-17.922-10.073-4.218-29.286-10.866-11.769-26.397 1.361-27.297 11.1s14.733 10.158 21.471-.569" transform="matrix(.994391 .105767 -.105767 .994391 77.6593 -29.6788)"/><path d="m205.058 772.383-7.673 23.959s4.607-15.77 12.038-10.087c7.432 5.682 10.407 15.698 8.085 21.341" transform="matrix(.994391 .105767 -.105767 .994391 77.6593 -29.6788)"/><path d="m250.15 812.155c-7.608 9.075-21.391 4.609-3.408-27.264-14.76 33.836-18.936 25.005-23.244 22.453-4.309-2.553 4.306-8.324 11.607-7.43" transform="matrix(.994391 .105767 -.105767 .994391 77.6593 -29.6788)"/><path d="m282.302 797.618s-13.198-9.793-17.354-8.422c.745 11.823.788 39.477 1.871 42.473" transform="translate(-6)"/><path d="m283.288 815.563-16.526-2.306" transform="translate(-6)"/><path d="m308.33 805.702c-12.607-.304-16.73 14.506-14.996 24.626-.035-10.911-.782-26.617-.782-26.617" transform="translate(-6)"/><path d="m310.922 815.518-.663 16.571" transform="translate(-6)"/><path d="m313.293 799.095c1.567.662 3.892 3.892.839 3.118" transform="translate(-6)"/><path d="m320.979 826.76c4.641-.882 12.383-3.56 14.181-6.267 1.799-2.706.375-10.565-6.385-9.796s-14.052 18.974-1.145 24.334 16.089-.658 15.012-2.774" transform="translate(-6)"/><path d="m350.282 818.327 2.86 25.982s-4.579-23.15 6.337-22.785 12.095 8.107 10.149 19.222" transform="translate(-6)"/><path d="m418.362 834.408c-9.499 6.793-17.833 1.933-17.266-32.37 2.071 35.145-.531 51.772-16.088 37.073-7.264-6.864 3.452-23.181 16.86-16.548" transform="translate(-6)"/><path d="m424.378 805.48c-2.501-5.292-18.254 3.445-6.951 10.996 11.303 7.55 13.744 23.052 2.701 25.533" transform="translate(-6)"/><path d="m462.943 835.726s-15.857-35.367-19.328-34.365c-3.471 1.001-4.936 38.904-4.936 38.904"/><path d="m456.602 824.632-14.841 1.116"/><path d="m468.637 810s-15.034.653-1.944 6.359 16.955 18.144 6.43 14.597c-10.525-3.546-4.213-5.407-4.213-5.407"/><path d="m480.91 801.237s-11.366 3.636-.396 8.67c10.969 5.033 11.372 9.208 9.409 11.583s-6.675-1.346-6.675-1.346"/><path d="m500.694 803.929c6.699 0 10.108 7.519 7.625 12.768s-9.139 5.734-10.626-1.012c-1.487-6.745-3.699-11.756 3.001-11.756z"/><path d="m519.733 800.765c-4.087 2.13-6.4 11.465 3.798 11.058 10.197-.408 5.463-6.344 5.463-6.344"/><path d="m536.63 805.482c-1.651-4.908-4.903-12.11-4.903-12.11"/><path d="m522.473 783.695c-.614 2.228-3.741 1.52-2.146-.173"/><path d="m547.575 785.412c-7.154.769-9.404 5.274-6.02 9.91s11.508-.389 9.965-5.307c-1.543-4.919-3.587-5.853-3.587-5.853s9.302 16.249 8.59 10.022"/><path d="m553.437 775.531c1.011 3.622 11.206 24.838 13.53 3.887"/><path d="m562.454 773.289c-1.878 1.974-5.437 8.19-5.437 8.19"/><path d="m570.879 776.675c1.293 3.324 2.347 6.383 2.347 6.383"/><path d="m567.617 765.484c1.7 1.702-.031 1.13-.031 1.13"/><path d="m579.411 764.877c3.305-1.779 10.048-.633 10.085 2.714.038 3.348-1.964 9.825-6.937 9.724-4.973-.102-6.452-10.66-3.148-12.438z"/><path d="m595.403 769.735c-4.519-9.995.229-14.653 6.224-14.453 5.994.2 7.052 4.391 7.052 4.391"/></g></g></g><circle cx="399.227" cy="486.875" fill="none" r="346.859" stroke="#000" stroke-width="4.39"/></g></g></g></svg>