<svg clip-rule="evenodd" fill-rule="evenodd" stroke-linecap="round" stroke-linejoin="round" stroke-miterlimit="1.5" viewBox="0 0 1800 1800" xmlns="http://www.w3.org/2000/svg"><path d="m-.00133592-.0035183h1800.00350208v1800.00350208h-1800.00350208z" fill="none" stroke-width=".697546"/><g transform="matrix(.99338293272 0 0 .99338293272 -882.03651182573 -1755.2417100705)"><circle cx="1793.9" cy="2070.14" fill="#7998c4" r="293.141"/><path d="m1793.9 1777c161.79 0 293.15 131.35 293.15 293.14s-131.36 293.14-293.15 293.14c-161.78 0-293.14-131.35-293.14-293.14s131.36-293.14 293.14-293.14zm0 17.11c-152.34 0-276.02 123.69-276.02 276.03s123.68 276.03 276.02 276.03c152.35 0 276.03-123.69 276.03-276.03s-123.68-276.03-276.03-276.03z" fill="#cbb477"/></g><g fill="#cbb477" fill-rule="nonzero"><path d="m.589 0h-.129l-.051-.163h-.235l-.048.163h-.126l.229-.716h.125zm-.218-.283-.081-.266-.08.266z" transform="matrix(67.82153195332 -27.00495254073 27.00495254073 67.82153195332 804.01876855704 117.89193429123)"/><path d="m.214 0v-.301l-.215-.415h.139l.138.283.136-.283h.136l-.216.416v.3z" transform="matrix(71.43363898102 -15.04192926552 15.04192926552 71.43363898102 837.91883451288 103.94190715011)"/><path d="m.192 0v-.595h-.174v-.121h.466v.121h-.174v.595z" transform="matrix(72.97364197724 -1.9672138274 1.9672138274 72.97364197724 876.06890873752 95.99189168259)"/><path d="m.036-.354c0-.085.013-.155.038-.21s.058-.096.099-.124c.041-.027.09-.04.148-.04.084 0 .152.032.205.096s.079.156.079.274c0 .12-.028.213-.084.281-.049.059-.115.089-.2.089s-.152-.029-.201-.088c-.056-.068-.084-.16-.084-.278zm.122-.004c0 .082.016.144.047.185s.07.062.116.062c.047 0 .085-.021.116-.062.031-.04.046-.103.046-.188 0-.083-.015-.144-.045-.184s-.069-.059-.117-.059-.087.02-.117.06c-.031.04-.046.102-.046.186z" transform="matrix(72.01604011414 11.94632324272 -11.94632324272 72.01604011414 910.75897623039 94.37188853072)"/><path d="m.061 0v-.716h.115l.241.478v-.478h.11v.716h-.119l-.237-.467v.467z" transform="matrix(67.84223199359 26.95285243937 -26.95285243937 67.84223199359 955.91906409368 101.95190327837)"/><path d="m.06 0v-.716h.19c.071 0 .117.004.139.01.035.012.064.035.086.071.023.036.034.083.034.14 0 .052-.009.095-.029.13s-.044.06-.073.074c-.03.014-.08.021-.152.021h-.077v.27zm.118-.595v.203h.065c.044 0 .074-.003.09-.009s.028-.017.039-.033c.01-.016.015-.036.015-.06 0-.023-.005-.043-.016-.06-.01-.016-.023-.027-.038-.032-.016-.006-.048-.009-.098-.009z" transform="matrix(27.10905274327 67.77993187238 -67.77993187238 27.10905274327 650.98647081798 378.27244088656)"/><path d="m.06 0v-.716h.25c.063 0 .109.007.136.019.028.013.05.036.068.067.017.032.026.07.026.114 0 .056-.013.101-.04.136-.027.034-.065.055-.115.064.026.018.047.038.063.06.017.022.039.06.068.116l.071.14h-.141l-.086-.156c-.031-.056-.052-.091-.063-.105-.011-.015-.022-.024-.035-.03-.012-.005-.032-.008-.059-.008h-.025v.299zm.118-.413h.088c.054 0 .088-.002.103-.007.014-.005.026-.014.035-.029.009-.014.014-.033.014-.057 0-.023-.005-.041-.014-.055s-.021-.023-.037-.028c-.011-.004-.043-.006-.096-.006h-.093z" transform="matrix(40.23807828705 60.90911850455 -60.90911850455 40.23807828705 670.08650797894 424.47253077328)"/><path d="m.056-.716h.118v.716h-.118z" transform="matrix(47.79989299929 55.17410734653 -55.17410734653 47.79989299929 698.08656245574 464.84260931715)"/><path d="m.058 0v-.716h.177l.107.488.105-.488h.178v.716h-.11v-.563l-.117.563h-.114l-.116-.563v.563z" transform="matrix(55.70510837965 47.18009179341 -47.18009179341 55.70510837965 713.17659181485 483.38264538858)"/><path d="m.589 0h-.129l-.051-.163h-.235l-.048.163h-.126l.229-.716h.125zm-.218-.283-.081-.266-.08.266z" transform="matrix(64.68522585133 33.83556583035 -33.83556583035 64.68522585133 760.74668436704 521.56271967158)"/><path d="m.06 0v-.716h.25c.063 0 .109.007.136.019.028.013.05.036.068.067.017.032.026.07.026.114 0 .056-.013.101-.04.136-.027.034-.065.055-.115.064.026.018.047.038.063.06.017.022.039.06.068.116l.071.14h-.141l-.086-.156c-.031-.056-.052-.091-.063-.105-.011-.015-.022-.024-.035-.03-.012-.005-.032-.008-.059-.008h-.025v.299zm.118-.413h.088c.054 0 .088-.002.103-.007.014-.005.026-.014.035-.029.009-.014.014-.033.014-.057 0-.023-.005-.041-.014-.055s-.021-.023-.037-.028c-.011-.004-.043-.006-.096-.006h-.093z" transform="matrix(70.44603705954 19.14093724054 -19.14093724054 70.44603705954 809.01677828115 545.73276669674)"/><path d="m.214 0v-.301l-.215-.415h.139l.138.283.136-.283h.136l-.216.416v.3z" transform="matrix(72.71574147547 6.4375625249 -6.4375625249 72.71574147547 857.0068716505 558.21279097782)"/><path d="m.03-.233.116-.014c.013.092.055.138.127.138.036 0 .064-.01.085-.028.02-.019.031-.042.031-.07 0-.016-.004-.03-.011-.042-.007-.011-.018-.02-.033-.028-.014-.007-.05-.019-.106-.036-.051-.016-.088-.032-.111-.05-.024-.018-.042-.042-.056-.071s-.021-.06-.021-.094c0-.039.009-.074.027-.105.018-.032.042-.055.073-.071.032-.016.07-.024.116-.024.069 0 .123.019.162.056.038.038.059.091.061.161l-.118.006c-.006-.038-.017-.065-.034-.08-.017-.016-.042-.023-.074-.023s-.056.006-.074.02c-.017.013-.025.03-.025.049 0 .02.007.036.023.05.016.013.052.028.108.044.059.017.103.035.129.054.027.019.047.044.061.074s.021.067.021.109c0 .063-.019.115-.058.157-.038.043-.098.064-.179.064-.144 0-.224-.082-.24-.246z" transform="matrix(71.99244006822 -12.08782351802 12.08782351802 71.99244006822 923.88700177222 560.64279570563)"/><path d="m.436-.263.114.044c-.018.08-.047.139-.089.176-.042.037-.093.055-.154.055-.076 0-.138-.029-.186-.088-.055-.068-.082-.16-.082-.276 0-.122.028-.217.083-.286.047-.06.112-.09.192-.09.066 0 .121.022.165.067.032.032.055.08.07.142l-.117.035c-.008-.039-.023-.069-.045-.089-.022-.021-.049-.031-.079-.031-.043 0-.079.018-.106.056s-.041.1-.041.187c0 .09.013.154.04.193.027.038.062.057.104.057.031 0 .058-.012.081-.037.023-.024.039-.062.05-.115z" transform="matrix(68.16843262824 -26.11685081285 26.11685081285 68.16843262824 972.7570968537 551.57277805904)"/><path d="m.06 0v-.716h.118v.282h.233v-.282h.118v.716h-.118v-.313h-.233v.313z" transform="matrix(61.38841943708 -39.50287685665 39.50287685665 61.38841943708 1022.27719319981 531.43273887466)"/><path d="m.036-.354c0-.085.013-.155.038-.21s.058-.096.099-.124c.041-.027.09-.04.148-.04.084 0 .152.032.205.096s.079.156.079.274c0 .12-.028.213-.084.281-.049.059-.115.089-.2.089s-.152-.029-.201-.088c-.056-.068-.084-.16-.084-.278zm.122-.004c0 .082.016.144.047.185s.07.062.116.062c.047 0 .085-.021.116-.062.031-.04.046-.103.046-.188 0-.083-.015-.144-.045-.184s-.069-.059-.117-.059-.087.02-.117.06c-.031.04-.046.102-.046.186z" transform="matrix(51.61890042954 -51.61890042954 51.61890042954 51.61890042954 1067.11728044051 501.43268050666)"/><path d="m.036-.354c0-.085.013-.155.038-.21s.058-.096.099-.124c.041-.027.09-.04.148-.04.084 0 .152.032.205.096s.079.156.079.274c0 .12-.028.213-.084.281-.049.059-.115.089-.2.089s-.152-.029-.201-.088c-.056-.068-.084-.16-.084-.278zm.122-.004c0 .082.016.144.047.185s.07.062.116.062c.047 0 .085-.021.116-.062.031-.04.046-.103.046-.188 0-.083-.015-.144-.045-.184s-.069-.059-.117-.059-.087.02-.117.06c-.031.04-.046.102-.046.186z" transform="matrix(39.08657604669 -61.65441995461 61.65441995461 39.08657604669 1107.0073580505 459.86259962806)"/><path d="m.063 0v-.71h.118v.589h.295v.121z" transform="matrix(25.80195020018 -68.28823286133 68.28823286133 25.80195020018 1136.14741474528 411.3325052081)"/></g><g transform="matrix(1.0000019456 0 0 1.0000019456 -1583.66787691706 -2074.44233110602)"><g stroke="#000" stroke-width="3"><path d="m2447.19 2437.1c16.49 11.32 13.76 15.95 3.39 42.95s-4.09 43.09-4.09 43.09l70.11.74s-16.71-37.49-15.05-69.72c1.67-32.22 33.33-44.86 15.41-76.18-4.18-7.31-17.88-21.53-26.03-22.37-13.05-1.35-16.82 11.49-16.94 11.56" fill="#cbb477"/><path d="m2611.18 2311.23c3.64 4.14-32.31 29.82-43.85 31.41-11.53 1.59-16.08-3.48-11.47-12.92 4.6-9.45 51.68-22.62 55.32-18.49z" fill="#265e54"/><path d="m2597.51 2317.95c-26.39 9.65-47.01 27.58-47.01 27.58" fill="#265e54"/><path d="m2618.94 2325.84c5.14 2.28 20.69 18.77 19.64 22.51-1.04 3.74-20.54.58-28.68 3.72-10.08 1.8-10.46-4.48-23.02-1.41-12.56 3.06-22.58-9.06-22.58-9.06s17.12-15.27 27.81-15.5c10.7-.24 21.69-2.53 26.83-.26z" fill="#265e54" transform="translate(1.13398 .60145)"/><path d="m2622.14 2342.84c-23.17-9.5-67.89-.19-67.89-.19" fill="#265e54"/><path d="m2547.19 2344.64c12.33-6.32 32.64-7.79 42.54 1.81 9.89 9.6 8.76 15.77 9.28 17.99.51 2.22 10.97 7.59-1.58 8.01-12.54.43-37.33-8.47-42.64-10.22-5.3-1.74-19.94-11.28-7.6-17.59z" fill="#265e54"/><path d="m2589.34 2364.18c-11.45-11.85-35.87-17.85-57.28-16.47" fill="#265e54"/><path d="m2435.22 2283.75c-15.3 7.81-13.48 23.8-18.57 27.66 16.97-6.67 34.6 4.96 44.44 9.43 9.83 4.48 16.16-29.3 16.16-29.3s-26.74-15.6-42.03-7.79z" fill="#265e54"/><path d="m2428.89 2304.57c33.34-15.88 52.23-3.16 52.23-3.16" fill="#265e54"/><path d="m2460.7 2263.32c6.86.28 35.45 5.01 39.98 26.84 4.54 21.84-6.86 21.95-14.52 19.91s-17.51-27.94-27.56-33.51c-14.43-8-7.04-13.61 2.1-13.24z" fill="#265e54"/><path d="m2464.99 2270.85c14.37 11.15 22.08 34.38 36.73 43.85" fill="#265e54"/><path d="m2439.93 2328.24c-2.59-.54 3.3-8.71 3.25-14s10.24-18.44 36.92-15.44c26.68 2.99 56.7 28.67 22.26 22.41-35.56-6.46-57.2 8.13-62.43 7.03z" fill="#265e54"/><path d="m2507.36 2317.72c-29.18-11.32-45.52-6.72-53.78-.81" fill="#265e54"/><path d="m2460.56 2335.82c10.35-23.28 45.51-28.2 60.93.29-14.54 3.7-21.85-6.35-38.1 2.24-6.05-7.47-16.11-7.71-22.83-2.53z" fill="#265e54"/><path d="m2528.12 2338.35c-10-5.8-34.23-14.36-50.65-10.92" fill="#265e54"/><path d="m2567.16 2326.64c-4.36 21.64-37.56 30.26-52.82 33.27-15.27 3.01-11.4-17.76 7.15-27.42 18.56-9.65 28.61-15.51 45.67-5.85z" fill="#265e54"/><path d="m2554.37 2332.49c-12.42 2.12-51.57 27.72-51.57 27.72" fill="#265e54"/><path d="m2493.47 2274.9c4.93-.36 32.31 48.88 25.24 61.01-7.07 12.14-20.6 3.87-24.72-9.3s-5.44-51.34-.52-51.71z" fill="#265e54"/><path d="m2498.15 2289.98c13.28 28.97 11.11 46.8 11.11 46.8" fill="#265e54"/><path d="m2565.56 2389.24c12.72-18.76-14.05-42.88-30.56-43.41s-28.31 11.45-37.2 29.17c-8.9 17.72 25.53-10.05 37.2-6.64 11.67 3.4 8.83 10.26 17.07 12.11 8.25 1.86 7.32 4.49 13.49 8.77z" fill="#265e54"/><path d="m2565.56 2389.24c12.72-18.76-14.05-42.88-30.56-43.41s-27.06 1.62-28.7 8.17c4.44 2.62 17.03 10.95 28.7 14.36 11.67 3.4 8.83 10.26 17.07 12.11 8.25 1.86 7.32 4.49 13.49 8.77z" fill="#265e54"/><path d="m1740.65 2140.67c.93-.67 16.24-1.03 16.24-1.03l-12.86 18.02s-4.31-16.32-3.38-16.99z" fill="#265e54" transform="translate(682.698 298.437)"/><path d="m2517.35 2345.01c-22.13 53.91-56.17 77.69-81.69 115.07-12.02 17.6-24.86 29.66-40.02 30.13 7.07-7.05 12.62-18.64 9.27-28.42 17.8-5.73 25.11-18.65 39.24-36.13 26.67-32.99 52.51-57.6 63.97-84.21s28.43-43.2 9.23 3.56z" fill="#265e54"/><path d="m2395.64 2490.21c21.37-2.89 34.07-28.46 9.27-28.42" fill="none"/><path d="m2544.47 2285.57c-.62 4.67-16.93 50.86-25.09 57.98-8.16 7.11-13.63-3.08-3.1-27.44s14-45.33 28.19-30.54z" fill="#265e54"/><path d="m2492.86 2272.11c0-3.84 13.44-11.75 15.82-11.46 2.37.28 9.11 11.03 6.62 13.89-2.49 2.85-22.44 1.41-22.44-2.43z" fill="#a23341"/><path d="m2577.97 2265.14c3.09-1.33 17.65 12.14 16.86 16.63-.78 4.48-19.21 1.09-26.63 0-7.42-1.1 6.67-15.31 9.77-16.63z" fill="#a23341"/><path d="m2546.37 2294.48c1.54 1.46-4.52 15.39-8.09 15.38s-8.8-17.42-8.07-18.16 14.63 1.31 16.16 2.78z" fill="#a23341"/><path d="m2562.81 2221.92c-.87 2.87 9.36 13.33 11.15 12.38 1.79-.94 8.36-15.29 6.81-18.5-1.56-3.22-17.09 3.25-17.96 6.12z" fill="#a23341"/><path d="m2551.35 2235.65c6.09-2.67 30.61-14 35.69-.92 5.08 13.07 2.88 29.38-.63 34.55-3.5 5.16-17.92 10.36-17.92 10.36l-22.02-18.99s-1.21-22.33 4.88-25z" fill="#a23341"/><path d="m2550.82 2260.65s22.45 15.91 26.54 19.66c4.08 3.75 4.73 9.22.68 14.46-4.05 5.25-11.99 8.34-26.44 8.11-14.44-.24-16.6-22.57-16.6-22.57z" fill="#a23341"/><path d="m2535 2224.18s-17.89-13.13-22.56-12.55c-4.67.59 2.29 31.66 2.29 31.66z" fill="#a23341"/><path d="m2542.26 2257.36s-9.15-33.63-25.32-29.77-22.63 17.38-23.2 23.46c-.58 6.08 1.69 14.99 15.56 16.04 13.86 1.04 25.7 2.19 25.7 2.19z" fill="#a23341"/><path d="m2532.82 2262.29c-25.21 3.35-37.23 12.43-21.02 30.16 16.2 17.73 30.77-.79 30.8-5.61.03-4.81 3.41-25.1 3.41-25.1s12.02-2.79-13.19.55z" fill="#a23341"/><path d="m2546.01 2253.95s13.51-12.89 16.84-17.84c3.34-4.96 10.51-16.46.58-22.39-9.92-5.93-24.25-8.81-30.61-4.63-6.36 4.17-11.45 11.56-6.18 19.65 5.28 8.09 19.37 25.21 19.37 25.21z" fill="#a23341" transform="translate(0 1)"/><path d="m2551.38 2244.03c7.56 2.79 9.41 9.09 6.53 18.34s-12.42 10.2-16.46 8.14c-4.03-2.07-11.53-8.93-7.45-17.06 4.03-8.05 10.72-11.88 17.38-9.42z" fill="#a23341"/><path d="m2566.89 2231.36c3.55.58 7.7 4.88 8.42 12.05.71 7.18.78 11.11.78 15.56s-4.11 8.37-4.11 8.37" fill="none"/><path d="m2571.49 2276.69c.4 5.88-1.68 8.63-4.6 12.31-2.93 3.68-15.03 1.88-15.03 1.88" fill="none"/><path d="m2541.45 2288.69c-3.31.49-18.18-.6-19.4-4.68-1.23-4.09-1.67-7.13-5.31-7.32" fill="none"/><path d="m2513.16 2267.34c-8.76-10.27-5.82-20.44 3.58-30.35" fill="none"/><path d="m2528.07 2230.55c1.23-3.62 10.59-13.17 17.75-10.89 7.15 2.28 7.48 5.45 15.79 4.19" fill="none"/><path d="m2501.55 2454.16c1.67-32.22 33.33-44.86 15.41-76.18-4.18-7.31-17.88-21.53-26.03-22.37-13.05-1.35-16.82 11.49-16.94 11.56" fill="#cbb477"/><path d="m2439.8 2409.54c.2-6.37 5.71-8.17 11.69-7.08 5.99 1.09 15.93 9.67 18.45 13.83 2.52 4.17-1.68 10.4-6.02 9.91-4.34-.48-24.33-10.28-24.12-16.66z" fill="#cbb477"/><path d="m2443.99 2395c.11-4.63 6.24-9.17 10.23-9.07s26.59 14.61 26.3 20.88c-.29 6.28-4.74 6.38-6.3 7.37-1.57.98-12.04-3.53-16.53-6.21-4.48-2.67-13.81-8.34-13.7-12.97z" fill="#cbb477"/><path d="m2486.27 2344.79c-.69-2.26 24.02-14.09 28.18-2.55 4.15 11.53.82 14.94-7.43 8.63s-20.06-3.83-20.75-6.08z" fill="#265e54"/><path d="m2459.39 2370.64c6.53-2.13 29 20.25 29 25.37s-2.55 8.76-7.24 8.5c-4.68-.27-20.69-10.9-26.06-18.01s-5.35-12.72 4.3-15.86z" fill="#cbb477"/><path d="m2469.75 2356.61c5.47 0 26.38 19.84 27.64 26.36 1.25 6.51-1.67 10.95-7.81 10.61-6.15-.35-28.59-22.47-28.73-26.74s3.43-10.23 8.9-10.23z" fill="#cbb477"/><path d="m2483.39 2363.12s-11.6 2.44-9.59 6.31c5.08 9.75 9.21 13.2 22.81 3.58" fill="#cbb477" transform="translate(-1)"/><path d="m2480.94 2360.84c1.82-1.27 6.43 4.54 6.43 7.1s-7.98 5.28-12.16 5.06c-4.17-.22-8.22-4.82-8.22-4.82s8.59-3.56 13.95-7.34z" fill="#cbb477"/></g><path d="m2505.55 2521.86 29.45-1.47 3.06 11.83-24.65 3.15h-24.71z" fill="#265e54"/><path d="m2528.15 2520.71c22.66-16.29 33.66.3 34.33 8.02s-18.01 10.84-29.36-2.58c-11.35-13.43-18.38-17.17-27.57-10.45-9.2 6.71-14 15.78-14 15.78" fill="#265e54" stroke="#000" stroke-width="3"/><path d="m2538.06 2531.98c-6.13 7.36-14.7 11.2-27.24-2.32-12.55-13.51-20.29-21.95-33.91-11.01-13.63 10.94 13.04 16.59 13.04 16.59" fill="#265e54" stroke="#000" stroke-width="3"/><path d="m2462.15 2535.45-9.72-15.97s4.07-7.05 11.21-7.13c7.13-.09 19.83 11.33 23.7 18.25 3.88 6.92 17.74 11.67 27.7 4" fill="#265e54" stroke="#000" stroke-width="3"/><path d="m2421.81 2532.18c-11.64-5.41-7.99-16.68 10.59-19.55 20.5-3.16 25.66 20.95 42.62 25.13 10.19 2.51 16.53-2.73 16.53-2.73" fill="#265e54" stroke="#000" stroke-width="3"/><path d="m2434.11 2531.56s-8.03 5.73-19.93 5.69c-11.9-.05-18.02-2.56-19.58-12.15s12.32-12.34 19.99-8.83c7.68 3.51 21.98 22.09 36.48 22.48 9.56.26 15.14-5.11 15.14-5.11" fill="#265e54" stroke="#000" stroke-width="3"/></g></svg>