<svg clip-rule="evenodd" fill-rule="evenodd" stroke-linecap="round" stroke-linejoin="round" stroke-miterlimit="1.5" viewBox="0 0 60 60" xmlns="http://www.w3.org/2000/svg"><g fill="none" transform="matrix(1.0158 0 0 .999023 -7717.809 -2059.79263)"><path d="m7597.76 2061.81h59.067v60.059h-59.067z"/><path d="m6380.11 608.695.14 7.216s-3.4-.516-5.73 1.078-2.29 9.28-2.29 9.28l6.52-.035-.06 6.646-6.46.453v21.318s23.88-12.296 23.88-26.624-7.39-27.924-23.88-30.53c-16.48-2.606-26.42 6.249-29.92 15.096s-4.25 22.679.98 27.867c5.23 5.187 19.78 13.642 19.78 13.642v-21.109h-7.03l-.2-6.369 7.23-2.483s1.94-10.141 5.62-13.8c3.68-3.66 11.42-1.646 11.42-1.646z" stroke="#a23341" stroke-width="5.36" transform="matrix(.918447 0 0 .933873 1778.79 1507.38)"/></g></svg>