<svg clip-rule="evenodd" fill-rule="evenodd" stroke-linecap="round" stroke-linejoin="round" stroke-miterlimit="1.5" viewBox="0 0 60 60" xmlns="http://www.w3.org/2000/svg"><g fill="none" transform="matrix(1.44681 0 0 1.03816 -11018 -1872.2761)"><path d="m7615.36 1803.46h41.47v57.795h-41.47z"/><g stroke="#a23341" stroke-width="5"><path d="m6571.32 529.896s13.24-17.49 12.94-30.606c-.3-13.115-8.3-25.142-18.97-21.542-10.67 3.599-18.17 8.605-17.45 19.857.73 11.252 23.48 32.291 23.48 32.291z" transform="matrix(.691174 0 0 .963244 3098.07 1347.8)"/><path d="m6566.03 492.296c3.51-1.207 6.04 4.849 5.83 6.842s1.51 10.443-6.83 7.968-7.82-1.314-6.1-9.027 3.59-4.576 7.1-5.783z" transform="matrix(.691174 0 0 .963244 3099.45 1346.84)"/></g></g></svg>