<svg clip-rule="evenodd" fill-rule="evenodd" stroke-linecap="round" stroke-linejoin="round" stroke-miterlimit="1.5" viewBox="0 0 120 60" xmlns="http://www.w3.org/2000/svg"><g fill="none" transform="matrix(2.21726 0 0 1.10568 -16834.17 -2456.583)"><path d="m7592.32 2221.79h54.121v54.265h-54.121z"/><g stroke="#a23341" stroke-width="5"><path d="m7902.82 2219.2c4.41 0 6.42 3.17 6.42 8.77s-1.82 6.43-6.42 6.43-5.46-2.24-5.46-5.46 1.05-9.74 5.46-9.74z" transform="matrix(.451006 0 0 .904422 4042.03 235.336)"/><path d="m7925.75 2227.97c0-3.91 2.13-8.77 7.23-8.77 5.09 0 7.56 4.49 7.85 8.77.29 4.29-3.64 8.65-7.85 8.65-4.22 0-7.23-4.73-7.23-8.65z" transform="matrix(.451006 0 0 .904422 4041.41 234.458)"/><path d="m7963.29 2219.2c4.62 0 8.54 7.23 8.54 10.46 0 3.24-3.41 7.98-8.52 6.96-5.12-1.02-6.8-6.98-6.8-9.82 0-2.83 2.15-7.6 6.78-7.6z" transform="matrix(.451006 0 0 .904422 4039.36 234.33)"/></g></g></svg>