<svg clip-rule="evenodd" fill-rule="evenodd" stroke-linecap="round" stroke-linejoin="round" stroke-miterlimit="1.5" viewBox="0 0 60 60" xmlns="http://www.w3.org/2000/svg"><g fill="none" transform="matrix(1.10622 0 0 1.10362 -8410.146 -1778.801)"><path d="m7602.59 1611.79h54.239v54.367h-54.239z"/><path d="m6334.52 491.139c6.53.039 14.87 11.42 15.24 18.692.36 7.272-5.46 1.212-9.88 7.539-4.41 6.327 17.64 26.742 24.95 27.216 7.31.473 2.51-9.488 7.4-10.941 4.9-1.453 18.75 7.265 19.15 13.416s-6.47 12.378-15.66 14.056c-9.2 1.678-28.59-12.389-33.59-18.512-5-6.124-22.48-24.496-20.52-36.049 1.97-11.553 6.39-15.457 12.91-15.417z" stroke="#a23341" stroke-width="7.1" transform="matrix(.636456 0 0 .637958 3584.31 1303.71)"/></g></svg>