<?xml version="1.0" encoding="UTF-8" standalone="no"?>
<!DOCTYPE svg PUBLIC "-//W3C//DTD SVG 1.1//EN" "http://www.w3.org/Graphics/SVG/1.1/DTD/svg11.dtd">
<svg width="100%" height="100%" viewBox="0 0 600 600" version="1.1" xmlns="http://www.w3.org/2000/svg" xmlns:xlink="http://www.w3.org/1999/xlink" xml:space="preserve" xmlns:serif="http://www.serif.com/" style="fill-rule:evenodd;clip-rule:evenodd;stroke-linecap:round;stroke-linejoin:round;stroke-miterlimit:1.5;">
    <g transform="matrix(1,0,0,1,-202,-985)">
        <g transform="matrix(1,0,0,1,-0.299868,-0.140331)">
            <rect id="Artboard2" x="202.3" y="985.14" width="599.4" height="599.4" style="fill:none;"/>
            <g id="Artboard21" serif:id="Artboard2">
                <g transform="matrix(1,0,0,1,-222.852,541.953)">
                    <g id="Badge" transform="matrix(0.993381,0,0,0.993381,-1056.88,-1313.41)">
                        <circle cx="1793.9" cy="2070.14" r="293.141" style="fill:rgb(121,152,196);"/>
                        <path d="M1793.9,1777C1955.69,1777 2087.05,1908.35 2087.05,2070.14C2087.05,2231.93 1955.69,2363.28 1793.9,2363.28C1632.12,2363.28 1500.76,2231.93 1500.76,2070.14C1500.76,1908.35 1632.12,1777 1793.9,1777ZM1793.9,1794.11C1641.56,1794.11 1517.88,1917.8 1517.88,2070.14C1517.88,2222.48 1641.56,2346.17 1793.9,2346.17C1946.25,2346.17 2069.93,2222.48 2069.93,2070.14C2069.93,1917.8 1946.25,1794.11 1793.9,1794.11Z" style="fill:rgb(203,180,119);"/>
                    </g>
                    <g id="Text">
                        <g transform="matrix(1,0,0,1,-979.198,-1237.56)">
                            <g id="Ayton">
                                <g transform="matrix(60.0191,-41.5537,41.5537,60.0191,1569.74,1823.52)">
                                    <path d="M0.589,-0L0.46,-0L0.409,-0.163L0.174,-0.163L0.126,-0L0,-0L0.229,-0.716L0.354,-0.716L0.589,-0ZM0.371,-0.283L0.29,-0.549L0.21,-0.283L0.371,-0.283Z" style="fill:rgb(203,180,119);fill-rule:nonzero;"/>
                                </g>
                                <g transform="matrix(66.1963,-30.7742,30.7742,66.1963,1599.68,1802.29)">
                                    <path d="M0.214,-0L0.214,-0.301L-0.001,-0.716L0.138,-0.716L0.276,-0.433L0.412,-0.716L0.548,-0.716L0.332,-0.3L0.332,-0L0.214,-0Z" style="fill:rgb(203,180,119);fill-rule:nonzero;"/>
                                </g>
                                <g transform="matrix(70.6789,-18.2618,18.2618,70.6789,1635.07,1785.91)">
                                    <path d="M0.192,-0L0.192,-0.595L0.018,-0.595L0.018,-0.716L0.484,-0.716L0.484,-0.595L0.31,-0.595L0.31,-0L0.192,-0Z" style="fill:rgb(203,180,119);fill-rule:nonzero;"/>
                                </g>
                                <g transform="matrix(72.8677,-4.39325,4.39325,72.8677,1668.42,1776.6)">
                                    <path d="M0.036,-0.354C0.036,-0.439 0.049,-0.509 0.074,-0.564C0.099,-0.619 0.132,-0.66 0.173,-0.688C0.214,-0.715 0.263,-0.728 0.321,-0.728C0.405,-0.728 0.473,-0.696 0.526,-0.632C0.579,-0.568 0.605,-0.476 0.605,-0.358C0.605,-0.238 0.577,-0.145 0.521,-0.077C0.472,-0.018 0.406,0.012 0.321,0.012C0.236,0.012 0.169,-0.017 0.12,-0.076C0.064,-0.144 0.036,-0.236 0.036,-0.354ZM0.158,-0.358C0.158,-0.276 0.174,-0.214 0.205,-0.173C0.236,-0.132 0.275,-0.111 0.321,-0.111C0.368,-0.111 0.406,-0.132 0.437,-0.173C0.468,-0.213 0.483,-0.276 0.483,-0.361C0.483,-0.444 0.468,-0.505 0.438,-0.545C0.408,-0.585 0.369,-0.604 0.321,-0.604C0.273,-0.604 0.234,-0.584 0.204,-0.544C0.173,-0.504 0.158,-0.442 0.158,-0.358Z" style="fill:rgb(203,180,119);fill-rule:nonzero;"/>
                                </g>
                                <g transform="matrix(72.1778,10.9254,-10.9254,72.1778,1714.13,1773.92)">
                                    <path d="M0.061,-0L0.061,-0.716L0.176,-0.716L0.417,-0.238L0.417,-0.716L0.527,-0.716L0.527,-0L0.408,-0L0.171,-0.467L0.171,-0L0.061,-0Z" style="fill:rgb(203,180,119);fill-rule:nonzero;"/>
                                </g>
                                <g transform="matrix(66.4176,30.2937,-30.2937,66.4176,1770.68,1784.64)">
                                    <path d="M0.06,-0L0.06,-0.716L0.25,-0.716C0.321,-0.716 0.367,-0.712 0.389,-0.706C0.424,-0.694 0.453,-0.671 0.475,-0.635C0.498,-0.599 0.509,-0.552 0.509,-0.495C0.509,-0.443 0.5,-0.4 0.48,-0.365C0.46,-0.33 0.436,-0.305 0.407,-0.291C0.377,-0.277 0.327,-0.27 0.255,-0.27L0.178,-0.27L0.178,-0L0.06,-0ZM0.178,-0.595L0.178,-0.392L0.243,-0.392C0.287,-0.392 0.317,-0.395 0.333,-0.401C0.349,-0.407 0.361,-0.418 0.372,-0.434C0.382,-0.45 0.387,-0.47 0.387,-0.494C0.387,-0.517 0.382,-0.537 0.371,-0.554C0.361,-0.57 0.348,-0.581 0.333,-0.586C0.317,-0.592 0.285,-0.595 0.235,-0.595L0.178,-0.595Z" style="fill:rgb(203,180,119);fill-rule:nonzero;"/>
                                </g>
                                <g transform="matrix(59.7689,41.9128,-41.9128,59.7689,1806.27,1800.75)">
                                    <path d="M0.03,-0.233L0.146,-0.247C0.159,-0.155 0.201,-0.109 0.273,-0.109C0.309,-0.109 0.337,-0.119 0.358,-0.137C0.378,-0.156 0.389,-0.179 0.389,-0.207C0.389,-0.223 0.385,-0.237 0.378,-0.249C0.371,-0.26 0.36,-0.269 0.345,-0.277C0.331,-0.284 0.295,-0.296 0.239,-0.313C0.188,-0.329 0.151,-0.345 0.128,-0.363C0.104,-0.381 0.086,-0.405 0.072,-0.434C0.058,-0.463 0.051,-0.494 0.051,-0.528C0.051,-0.567 0.06,-0.602 0.078,-0.633C0.096,-0.665 0.12,-0.688 0.151,-0.704C0.183,-0.72 0.221,-0.728 0.267,-0.728C0.336,-0.728 0.39,-0.709 0.429,-0.672C0.467,-0.634 0.488,-0.581 0.49,-0.511L0.372,-0.505C0.366,-0.543 0.355,-0.57 0.338,-0.585C0.321,-0.601 0.296,-0.608 0.264,-0.608C0.232,-0.608 0.208,-0.602 0.19,-0.588C0.173,-0.575 0.165,-0.558 0.165,-0.539C0.165,-0.519 0.172,-0.503 0.188,-0.489C0.204,-0.476 0.24,-0.461 0.296,-0.445C0.355,-0.428 0.399,-0.41 0.425,-0.391C0.452,-0.372 0.472,-0.347 0.486,-0.317C0.5,-0.287 0.507,-0.25 0.507,-0.208C0.507,-0.145 0.488,-0.093 0.449,-0.051C0.411,-0.008 0.351,0.013 0.27,0.013C0.126,0.013 0.046,-0.069 0.03,-0.233Z" style="fill:rgb(203,180,119);fill-rule:nonzero;"/>
                                </g>
                            </g>
                        </g>
                        <g transform="matrix(-1,-1.22465e-16,1.22465e-16,-1,2429.5,2723.61)">
                            <g id="Primary-School" serif:id="Primary School">
                                <g transform="matrix(-24.7471,-68.6774,68.6774,-24.7471,1955.87,1912.12)">
                                    <path d="M0.06,-0L0.06,-0.716L0.25,-0.716C0.321,-0.716 0.367,-0.712 0.389,-0.706C0.424,-0.694 0.453,-0.671 0.475,-0.635C0.498,-0.599 0.509,-0.552 0.509,-0.495C0.509,-0.443 0.5,-0.4 0.48,-0.365C0.46,-0.33 0.436,-0.305 0.407,-0.291C0.377,-0.277 0.327,-0.27 0.255,-0.27L0.178,-0.27L0.178,-0L0.06,-0ZM0.178,-0.595L0.178,-0.392L0.243,-0.392C0.287,-0.392 0.317,-0.395 0.333,-0.401C0.349,-0.407 0.361,-0.418 0.372,-0.434C0.382,-0.45 0.387,-0.47 0.387,-0.494C0.387,-0.517 0.382,-0.537 0.371,-0.554C0.361,-0.57 0.348,-0.581 0.333,-0.586C0.317,-0.592 0.285,-0.595 0.235,-0.595L0.178,-0.595Z" style="fill:rgb(203,180,119);fill-rule:nonzero;"/>
                                </g>
                                <g transform="matrix(-33.393,-64.9146,64.9146,-33.393,1939.34,1869.43)">
                                    <rect x="0.056" y="-0.716" width="0.118" height="0.716" style="fill:rgb(203,180,119);fill-rule:nonzero;"/>
                                </g>
                                <g transform="matrix(-42.0471,-59.6745,59.6745,-42.0471,1929.22,1848.72)">
                                    <path d="M0.436,-0.263L0.55,-0.219C0.532,-0.139 0.503,-0.08 0.461,-0.043C0.419,-0.006 0.368,0.012 0.307,0.012C0.231,0.012 0.169,-0.017 0.121,-0.076C0.066,-0.144 0.039,-0.236 0.039,-0.352C0.039,-0.474 0.067,-0.569 0.122,-0.638C0.169,-0.698 0.234,-0.728 0.314,-0.728C0.38,-0.728 0.435,-0.706 0.479,-0.661C0.511,-0.629 0.534,-0.581 0.549,-0.519L0.432,-0.484C0.424,-0.523 0.409,-0.553 0.387,-0.573C0.365,-0.594 0.338,-0.604 0.308,-0.604C0.265,-0.604 0.229,-0.586 0.202,-0.548C0.175,-0.51 0.161,-0.448 0.161,-0.361C0.161,-0.271 0.174,-0.207 0.201,-0.168C0.228,-0.13 0.263,-0.111 0.305,-0.111C0.336,-0.111 0.363,-0.123 0.386,-0.148C0.409,-0.172 0.425,-0.21 0.436,-0.263Z" style="fill:rgb(203,180,119);fill-rule:nonzero;"/>
                                </g>
                                <g transform="matrix(-53.799,-49.3424,49.3424,-53.799,1897.4,1805.18)">
                                    <path d="M0.061,-0L0.061,-0.716L0.179,-0.716L0.179,-0.398L0.419,-0.716L0.579,-0.716L0.357,-0.437L0.59,-0L0.437,-0L0.275,-0.336L0.179,-0.216L0.179,-0L0.061,-0Z" style="fill:rgb(203,180,119);fill-rule:nonzero;"/>
                                </g>
                                <g transform="matrix(-61.9175,-38.668,38.668,-61.9175,1858.44,1770.53)">
                                    <path d="M0.063,-0L0.063,-0.71L0.181,-0.71L0.181,-0.121L0.476,-0.121L0.476,-0L0.063,-0Z" style="fill:rgb(203,180,119);fill-rule:nonzero;"/>
                                </g>
                                <g transform="matrix(-67.7798,-27.109,27.109,-67.7798,1819.9,1746.96)">
                                    <path d="M0.06,-0L0.06,-0.716L0.496,-0.716L0.496,-0.595L0.178,-0.595L0.178,-0.436L0.473,-0.436L0.473,-0.315L0.178,-0.315L0.178,-0.121L0.506,-0.121L0.506,-0L0.06,-0Z" style="fill:rgb(203,180,119);fill-rule:nonzero;"/>
                                </g>
                                <g transform="matrix(-71.7987,-13.189,13.189,-71.7987,1773.39,1729.1)">
                                    <path d="M0.06,-0.716L0.294,-0.716C0.359,-0.716 0.404,-0.71 0.43,-0.698C0.456,-0.687 0.478,-0.666 0.496,-0.636C0.514,-0.607 0.522,-0.573 0.522,-0.536C0.522,-0.501 0.515,-0.47 0.5,-0.442C0.484,-0.414 0.464,-0.394 0.44,-0.38C0.475,-0.368 0.502,-0.347 0.522,-0.317C0.541,-0.287 0.551,-0.25 0.551,-0.208C0.551,-0.155 0.539,-0.111 0.514,-0.075C0.489,-0.039 0.459,-0.017 0.425,-0.009C0.401,-0.003 0.346,-0 0.259,-0L0.06,-0L0.06,-0.716ZM0.178,-0.597L0.178,-0.431L0.256,-0.431C0.303,-0.431 0.332,-0.432 0.343,-0.434C0.363,-0.437 0.379,-0.445 0.39,-0.459C0.402,-0.473 0.407,-0.492 0.407,-0.516C0.407,-0.537 0.403,-0.554 0.393,-0.567C0.384,-0.58 0.373,-0.589 0.36,-0.592C0.346,-0.595 0.309,-0.597 0.246,-0.597L0.178,-0.597ZM0.178,-0.312L0.178,-0.121L0.288,-0.121C0.336,-0.121 0.367,-0.123 0.38,-0.128C0.394,-0.133 0.406,-0.143 0.415,-0.158C0.424,-0.173 0.429,-0.192 0.429,-0.214C0.429,-0.238 0.424,-0.257 0.414,-0.272C0.404,-0.287 0.391,-0.298 0.374,-0.303C0.358,-0.309 0.324,-0.312 0.273,-0.312L0.178,-0.312Z" style="fill:rgb(203,180,119);fill-rule:nonzero;"/>
                                </g>
                                <g transform="matrix(-72.9879,1.33095,-1.33095,-72.9879,1721.04,1720.44)">
                                    <path d="M0.589,-0L0.46,-0L0.409,-0.163L0.174,-0.163L0.126,-0L0,-0L0.229,-0.716L0.354,-0.716L0.589,-0ZM0.371,-0.283L0.29,-0.549L0.21,-0.283L0.371,-0.283Z" style="fill:rgb(203,180,119);fill-rule:nonzero;"/>
                                </g>
                                <g transform="matrix(-71.3379,15.4889,-15.4889,-71.3379,1668.32,1722.52)">
                                    <path d="M0.063,-0L0.063,-0.71L0.181,-0.71L0.181,-0.121L0.476,-0.121L0.476,-0L0.063,-0Z" style="fill:rgb(203,180,119);fill-rule:nonzero;"/>
                                </g>
                                <g transform="matrix(-67.591,27.5764,-27.5764,-67.591,1624.55,1732.52)">
                                    <path d="M0.063,-0L0.063,-0.71L0.181,-0.71L0.181,-0.121L0.476,-0.121L0.476,-0L0.063,-0Z" style="fill:rgb(203,180,119);fill-rule:nonzero;"/>
                                </g>
                                <g transform="matrix(-58.5851,43.5521,-43.5521,-58.5851,1566.79,1759.16)">
                                    <path d="M0.436,-0.263L0.55,-0.219C0.532,-0.139 0.503,-0.08 0.461,-0.043C0.419,-0.006 0.368,0.012 0.307,0.012C0.231,0.012 0.169,-0.017 0.121,-0.076C0.066,-0.144 0.039,-0.236 0.039,-0.352C0.039,-0.474 0.067,-0.569 0.122,-0.638C0.169,-0.698 0.234,-0.728 0.314,-0.728C0.38,-0.728 0.435,-0.706 0.479,-0.661C0.511,-0.629 0.534,-0.581 0.549,-0.519L0.432,-0.484C0.424,-0.523 0.409,-0.553 0.387,-0.573C0.365,-0.594 0.338,-0.604 0.308,-0.604C0.265,-0.604 0.229,-0.586 0.202,-0.548C0.175,-0.51 0.161,-0.448 0.161,-0.361C0.161,-0.271 0.174,-0.207 0.201,-0.168C0.228,-0.13 0.263,-0.111 0.305,-0.111C0.336,-0.111 0.363,-0.123 0.386,-0.148C0.409,-0.172 0.425,-0.21 0.436,-0.263Z" style="fill:rgb(203,180,119);fill-rule:nonzero;"/>
                                </g>
                                <g transform="matrix(-49.0613,54.0555,-54.0555,-49.0613,1525.18,1791.5)">
                                    <path d="M0.063,-0L0.063,-0.71L0.181,-0.71L0.181,-0.121L0.476,-0.121L0.476,-0L0.063,-0Z" style="fill:rgb(203,180,119);fill-rule:nonzero;"/>
                                </g>
                                <g transform="matrix(-38.6214,61.9466,-61.9466,-38.6214,1495.07,1825.22)">
                                    <path d="M0.059,-0.716L0.177,-0.716L0.177,-0.328C0.177,-0.268 0.178,-0.229 0.181,-0.21C0.186,-0.179 0.199,-0.154 0.219,-0.137C0.238,-0.12 0.264,-0.111 0.296,-0.111C0.324,-0.111 0.346,-0.117 0.363,-0.13C0.381,-0.142 0.392,-0.159 0.399,-0.18C0.405,-0.202 0.408,-0.249 0.408,-0.32L0.408,-0.716L0.527,-0.716L0.527,-0.34C0.527,-0.244 0.522,-0.174 0.511,-0.132C0.501,-0.089 0.478,-0.054 0.442,-0.028C0.406,-0.001 0.359,0.012 0.3,0.012C0.239,0.012 0.191,0.001 0.156,-0.021C0.122,-0.043 0.097,-0.074 0.082,-0.114C0.066,-0.153 0.059,-0.227 0.059,-0.334L0.059,-0.716Z" style="fill:rgb(203,180,119);fill-rule:nonzero;"/>
                                </g>
                                <g transform="matrix(-24.8001,68.6583,-68.6583,-24.8001,1467.51,1871.43)">
                                    <path d="M0.06,-0.716L0.294,-0.716C0.359,-0.716 0.404,-0.71 0.43,-0.698C0.456,-0.687 0.478,-0.666 0.496,-0.636C0.514,-0.607 0.522,-0.573 0.522,-0.536C0.522,-0.501 0.515,-0.47 0.5,-0.442C0.484,-0.414 0.464,-0.394 0.44,-0.38C0.475,-0.368 0.502,-0.347 0.522,-0.317C0.541,-0.287 0.551,-0.25 0.551,-0.208C0.551,-0.155 0.539,-0.111 0.514,-0.075C0.489,-0.039 0.459,-0.017 0.425,-0.009C0.401,-0.003 0.346,-0 0.259,-0L0.06,-0L0.06,-0.716ZM0.178,-0.597L0.178,-0.431L0.256,-0.431C0.303,-0.431 0.332,-0.432 0.343,-0.434C0.363,-0.437 0.379,-0.445 0.39,-0.459C0.402,-0.473 0.407,-0.492 0.407,-0.516C0.407,-0.537 0.403,-0.554 0.393,-0.567C0.384,-0.58 0.373,-0.589 0.36,-0.592C0.346,-0.595 0.309,-0.597 0.246,-0.597L0.178,-0.597ZM0.178,-0.312L0.178,-0.121L0.288,-0.121C0.336,-0.121 0.367,-0.123 0.38,-0.128C0.394,-0.133 0.406,-0.143 0.415,-0.158C0.424,-0.173 0.429,-0.192 0.429,-0.214C0.429,-0.238 0.424,-0.257 0.414,-0.272C0.404,-0.287 0.391,-0.298 0.374,-0.303C0.358,-0.309 0.324,-0.312 0.273,-0.312L0.178,-0.312Z" style="fill:rgb(203,180,119);fill-rule:nonzero;"/>
                                </g>
                            </g>
                        </g>
                    </g>
                    <g id="Icon" transform="matrix(0.794071,0,0,0.794071,-1259.13,-1131.27)">
                        <path id="Arm" d="M2447.19,2437.1C2463.68,2448.42 2460.95,2453.05 2450.58,2480.05C2440.21,2507.05 2446.49,2523.14 2446.49,2523.14L2516.6,2523.88C2516.6,2523.88 2499.89,2486.39 2501.55,2454.16C2503.22,2421.94 2534.88,2409.3 2516.96,2377.98C2512.78,2370.67 2499.08,2356.45 2490.93,2355.61C2477.88,2354.26 2474.11,2367.1 2473.99,2367.17" style="fill:rgb(203,180,119);stroke:black;stroke-width:3px;"/>
                        <g transform="matrix(0.243829,0.151949,-0.151949,0.243829,2275.74,1331.64)">
                            <g transform="matrix(1,0,0,1,1942.38,1833.32)">
                                <path d="M651.438,797.779C651.438,784.141 640.366,773.068 626.727,773.068L577.306,773.068C563.667,773.068 552.595,784.141 552.595,797.779L552.595,1094.27C552.595,1107.91 563.667,1118.98 577.306,1118.98L626.727,1118.98C640.366,1118.98 651.438,1107.91 651.438,1094.27L651.438,797.779Z" style="fill:rgb(38,94,84);stroke:black;stroke-width:10.52px;"/>
                            </g>
                            <g transform="matrix(1.06058,0,0,1.11653,1904.69,1705.08)">
                                <path d="M663.446,1103.88C663.446,1096.6 657.226,1090.69 649.565,1090.69L556.772,1090.69C549.111,1090.69 542.891,1096.6 542.891,1103.88L542.891,1130.25C542.891,1137.52 549.111,1143.43 556.772,1143.43L649.565,1143.43C657.226,1143.43 663.446,1137.52 663.446,1130.25L663.446,1103.88Z" style="fill:rgb(38,94,84);stroke:black;stroke-width:9.66px;"/>
                            </g>
                            <g transform="matrix(1,0,0,1,1944.4,1835.64)">
                                <path d="M867.195,183.597C867.195,109.863 807.332,50 733.597,50L466.402,50C392.668,50 332.805,109.863 332.805,183.597L332.805,508.847C332.805,644.694 458.329,737.333 578.942,754.984L619.483,754.984C733.303,739.026 867.195,643.988 867.195,507.273L867.195,183.597Z" style="fill:rgb(38,94,84);stroke:black;stroke-width:10.52px;"/>
                            </g>
                            <g transform="matrix(1,0,0,1,1945.41,1836.45)">
                                <path d="M659.698,759.131C659.698,750.874 652.994,744.17 644.737,744.17L551.765,744.17C543.508,744.17 536.804,750.874 536.804,759.131L536.804,789.053C536.804,797.31 543.508,804.014 551.765,804.014L644.737,804.014C652.994,804.014 659.698,797.31 659.698,789.053L659.698,759.131Z" style="fill:rgb(38,94,84);stroke:black;stroke-width:10.52px;"/>
                            </g>
                            <g transform="matrix(1,0,0,1,1944.4,1835.64)">
                                <path d="M581.373,722.484C589.732,722.484 617.144,722.484 617.148,722.484C716.701,707.596 834.695,626.518 834.695,507.273L834.695,183.597C834.695,127.8 789.395,82.5 733.597,82.5L466.402,82.5C410.605,82.5 365.305,127.8 365.305,183.597L365.305,508.847C365.305,627.303 476.116,706.19 581.373,722.484Z" style="fill:rgb(38,94,84);stroke:black;stroke-width:10.52px;"/>
                            </g>
                        </g>
                        <path id="Palm" d="M2501.55,2454.16C2503.22,2421.94 2534.88,2409.3 2516.96,2377.98C2512.78,2370.67 2499.08,2356.45 2490.93,2355.61C2477.88,2354.26 2474.11,2367.1 2473.99,2367.17" style="fill:rgb(203,180,119);stroke:black;stroke-width:3px;"/>
                        <path id="Little-finger" serif:id="Little finger" d="M2439.8,2409.54C2440,2403.17 2445.51,2401.37 2451.49,2402.46C2457.48,2403.55 2467.42,2412.13 2469.94,2416.29C2472.46,2420.46 2468.26,2426.69 2463.92,2426.2C2459.58,2425.72 2439.59,2415.92 2439.8,2409.54Z" style="fill:rgb(203,180,119);stroke:black;stroke-width:3px;"/>
                        <path id="Ring-finger" serif:id="Ring finger" d="M2443.99,2395C2444.1,2390.37 2450.23,2385.83 2454.22,2385.93C2458.21,2386.03 2480.81,2400.54 2480.52,2406.81C2480.23,2413.09 2475.78,2413.19 2474.22,2414.18C2472.65,2415.16 2462.18,2410.65 2457.69,2407.97C2453.21,2405.3 2443.88,2399.63 2443.99,2395Z" style="fill:rgb(203,180,119);stroke:black;stroke-width:3px;"/>
                        <path id="Middle-finger" serif:id="Middle finger" d="M2459.39,2370.64C2465.92,2368.51 2488.39,2390.89 2488.39,2396.01C2488.39,2401.13 2485.84,2404.77 2481.15,2404.51C2476.47,2404.24 2460.46,2393.61 2455.09,2386.5C2449.72,2379.39 2449.74,2373.78 2459.39,2370.64Z" style="fill:rgb(203,180,119);stroke:black;stroke-width:3px;"/>
                        <path id="Index-finger" serif:id="Index finger" d="M2469.75,2356.61C2475.22,2356.61 2496.13,2376.45 2497.39,2382.97C2498.64,2389.48 2495.72,2393.92 2489.58,2393.58C2483.43,2393.23 2460.99,2371.11 2460.85,2366.84C2460.71,2362.57 2464.28,2356.61 2469.75,2356.61Z" style="fill:rgb(203,180,119);stroke:black;stroke-width:3px;"/>
                        <g transform="matrix(1,0,0,1,-1,0)">
                            <path d="M2483.39,2363.12C2483.39,2363.12 2471.79,2365.56 2473.8,2369.43C2478.88,2379.18 2483.01,2382.63 2496.61,2373.01" style="fill:rgb(203,180,119);stroke:black;stroke-width:3px;"/>
                        </g>
                        <path id="Thumbnail" d="M2480.94,2360.84C2482.76,2359.57 2487.37,2365.38 2487.37,2367.94C2487.37,2370.5 2479.39,2373.22 2475.21,2373C2471.04,2372.78 2466.99,2368.18 2466.99,2368.18C2466.99,2368.18 2475.58,2364.62 2480.94,2360.84Z" style="fill:rgb(203,180,119);stroke:black;stroke-width:3px;"/>
                        <path id="Twist-filler" serif:id="Twist filler" d="M2505.55,2521.86L2535,2520.39L2538.06,2532.22L2513.41,2535.37L2488.7,2535.37L2505.55,2521.86Z" style="fill:rgb(38,94,84);"/>
                        <path id="Twist-5" serif:id="Twist 5" d="M2528.15,2520.71C2550.81,2504.42 2561.81,2521.01 2562.48,2528.73C2563.15,2536.45 2544.47,2539.57 2533.12,2526.15C2521.77,2512.72 2514.74,2508.98 2505.55,2515.7C2496.35,2522.41 2491.55,2531.48 2491.55,2531.48" style="fill:rgb(38,94,84);stroke:black;stroke-width:3px;"/>
                        <path id="Twist-4" serif:id="Twist 4" d="M2538.06,2531.98C2531.93,2539.34 2523.36,2543.18 2510.82,2529.66C2498.27,2516.15 2490.53,2507.71 2476.91,2518.65C2463.28,2529.59 2489.95,2535.24 2489.95,2535.24" style="fill:rgb(38,94,84);stroke:black;stroke-width:3px;"/>
                        <path id="Twist-3" serif:id="Twist 3" d="M2462.15,2535.45L2452.43,2519.48C2452.43,2519.48 2456.5,2512.43 2463.64,2512.35C2470.77,2512.26 2483.47,2523.68 2487.34,2530.6C2491.22,2537.52 2505.08,2542.27 2515.04,2534.6" style="fill:rgb(38,94,84);stroke:black;stroke-width:3px;"/>
                        <path id="Twist-2" serif:id="Twist 2" d="M2421.81,2532.18C2410.17,2526.77 2413.82,2515.5 2432.4,2512.63C2452.9,2509.47 2458.06,2533.58 2475.02,2537.76C2485.21,2540.27 2491.55,2535.03 2491.55,2535.03" style="fill:rgb(38,94,84);stroke:black;stroke-width:3px;"/>
                        <path id="Twist-1" serif:id="Twist 1" d="M2434.11,2531.56C2434.11,2531.56 2426.08,2537.29 2414.18,2537.25C2402.28,2537.2 2396.16,2534.69 2394.6,2525.1C2393.04,2515.51 2406.92,2512.76 2414.59,2516.27C2422.27,2519.78 2436.57,2538.36 2451.07,2538.75C2460.63,2539.01 2466.21,2533.64 2466.21,2533.64" style="fill:rgb(38,94,84);stroke:black;stroke-width:3px;"/>
                    </g>
                    <g transform="matrix(0.183039,0,0,0.183039,622.509,557.68)">
                        <path d="M924.634,422.874C846.694,378.468 748.311,404.255 704.889,480.471C661.467,556.685 689.449,654.466 767.389,698.871C845.329,743.276 943.712,717.49 987.134,641.275C1030.56,565.06 1002.57,467.279 924.634,422.874ZM715.845,615.928C711.356,617.378 704.589,608.876 700.73,596.935C696.872,584.995 697.383,574.139 701.872,572.689C706.361,571.238 713.128,579.741 716.987,591.682C720.846,603.622 720.334,614.478 715.845,615.928ZM744.057,482.993C737.097,494.172 727.582,500.823 722.805,497.849C718.028,494.875 719.797,483.402 726.757,472.223C733.717,461.044 743.232,454.393 748.009,457.367C752.786,460.342 751.016,471.815 744.057,482.993ZM768.139,545.076C773.948,534.879 786.923,531.323 797.119,537.132C807.315,542.941 810.872,555.916 805.063,566.112C799.254,576.308 786.279,579.864 776.083,574.055C765.886,568.247 762.33,555.272 768.139,545.076ZM811.229,678.897C808.341,683.716 797.297,682.407 786.56,675.973C775.823,669.54 769.461,660.418 772.348,655.599C775.236,650.78 786.28,652.089 797.017,658.523C807.753,664.956 814.116,674.079 811.229,678.897ZM817.446,426.365C805.379,429.806 794.548,428.919 793.254,424.382C791.96,419.846 800.693,413.378 812.761,409.936C824.828,406.495 835.659,407.382 836.953,411.919C838.246,416.456 829.513,422.924 817.446,426.365ZM855.337,507.391L855.387,507.363C855.378,507.356 855.37,507.347 855.361,507.341C855.519,503.733 856.492,500.108 858.403,496.755C864.829,485.476 879.182,481.541 890.462,487.968C901.741,494.393 905.676,508.747 899.249,520.026C895.595,526.439 889.377,530.468 882.621,531.578C882.771,531.23 882.838,530.868 882.966,530.516C882.837,530.871 882.769,531.237 882.618,531.588L882.314,531.636C877.278,532.395 871.96,531.53 867.191,528.813C859.28,524.305 854.982,515.901 855.337,507.391ZM867.7,604.811L868.274,604.977L867.726,604.818C868.294,602.944 869.056,601.09 870.075,599.302C876.798,587.501 890.972,582.904 901.732,589.035C912.492,595.165 915.765,609.702 909.041,621.503C902.697,632.638 889.723,637.349 879.24,632.696L879.234,632.706C878.608,632.429 877.99,632.117 877.384,631.772C868.253,626.568 864.514,615.312 867.7,604.811ZM893.451,701.237C892.942,701.398 892.44,701.543 891.936,701.691C891.944,701.681 891.948,701.67 891.956,701.66C891.946,701.674 891.94,701.688 891.929,701.702L891.745,701.754C880.526,705.027 870.95,705.237 869.969,702.121C869.747,701.417 869.983,700.601 870.608,699.715L870.763,699.569L870.674,699.653C873.002,696.432 880.406,692.323 889.72,689.389C901.659,685.629 912.172,685.233 913.202,688.504C914.232,691.775 905.389,697.477 893.451,701.237ZM932.901,451.283C930.639,455.254 920.592,453.795 910.462,448.023C900.332,442.252 893.954,434.354 896.216,430.383C898.478,426.412 908.524,427.872 918.655,433.643C928.786,439.414 935.164,447.311 932.901,451.283ZM959.516,512.791C954.501,500.616 954.654,489.007 959.857,486.865C965.06,484.721 973.344,492.855 978.359,505.031C983.374,517.207 983.221,528.815 978.018,530.958C972.815,533.101 964.531,524.967 959.516,512.791ZM971.704,628.881C967.38,626.994 968.216,615.517 973.571,603.247C978.926,590.977 986.773,582.559 991.097,584.446C995.421,586.333 994.585,597.81 989.23,610.081C983.874,622.35 976.028,630.768 971.704,628.881Z" style="fill:rgb(114,25,25);fill-rule:nonzero;stroke:black;stroke-width:13.11px;stroke-linecap:butt;stroke-miterlimit:2;"/>
                    </g>
                </g>
            </g>
        </g>
    </g>
</svg>
