<svg clip-rule="evenodd" fill-rule="evenodd" stroke-linejoin="round" stroke-miterlimit="2" viewBox="0 0 842 842" xmlns="http://www.w3.org/2000/svg"><path d="m.0002-.0003h841.38v841.38h-841.38z" fill="none"/><g fill-rule="nonzero"><path d="m.059-.032c-.01-.007-.015-.016-.015-.025s.004-.016.011-.022c-.013-.095-.019-.205-.019-.328 0-.037.002-.11.005-.218.003-.01.01-.019.021-.026.01-.007.02-.011.029-.011s.015 0 .017.001c.095.027.178.078.249.154.071.077.108.168.111.275 0 .117-.049.191-.146.221-.028.009-.057.013-.088.013s-.059-.002-.082-.007c.003.005.004.013.004.022 0 .008-.005.017-.016.026-.011.008-.024.012-.039.012s-.025-.009-.029-.027zm.06-.383c0 .117.007.227.02.332.016.005.043.007.081.007s.075-.006.11-.019.053-.031.055-.056c.002-.019.003-.033.003-.043 0-.087-.023-.163-.069-.23-.047-.067-.112-.117-.195-.152-.003.079-.005.132-.005.161z" transform="matrix(109.339 0 0 109.339 156.8008 167.9587)"/><path d="m.104-.632c.012 0 .023.006.034.017s.016.023.016.035c0 .013-.006.025-.017.038-.012.013-.024.019-.037.019s-.024-.005-.034-.016c-.011-.011-.016-.024-.016-.041 0-.032.017-.049.052-.052zm.042.524.001.07c0 .013-.005.023-.015.031-.01.009-.021.013-.032.013-.017 0-.025-.008-.026-.025-.009-.213-.013-.33-.013-.353s.001-.05.003-.083c.001-.012.009-.018.023-.018.035 0 .055.014.06.043.002.015.003.026.003.035l-.004.063z" transform="matrix(109.339 0 0 109.339 208.7368 167.9587)"/><path d="m.325-.041c-.024.028-.054.042-.091.042s-.068-.011-.095-.034c-.056-.043-.084-.11-.084-.199 0-.07.019-.126.058-.169.039-.042.086-.063.143-.063s.095.019.116.058c.018.034.027.085.027.154l-.002.082c0 .039.002.092.006.16.003.069.005.12.005.155 0 .057-.014.1-.042.127-.029.027-.072.04-.13.04-.035 0-.07-.007-.106-.022s-.054-.032-.054-.051c0-.014.004-.025.012-.032.007-.007.016-.011.026-.011s.033.007.068.022.06.022.075.022c.048 0 .072-.039.072-.118s-.001-.133-.004-.163zm-.001-.211c0-.049-.007-.083-.021-.103-.015-.019-.037-.029-.068-.029s-.055.014-.074.042-.028.063-.028.106.009.078.027.103c.017.025.044.038.081.038s.06-.016.071-.047c.008-.025.012-.062.012-.11z" transform="matrix(109.339 0 0 109.339 233.2288 167.9587)"/><path d="m.104-.632c.012 0 .023.006.034.017s.016.023.016.035c0 .013-.006.025-.017.038-.012.013-.024.019-.037.019s-.024-.005-.034-.016c-.011-.011-.016-.024-.016-.041 0-.032.017-.049.052-.052zm.042.524.001.07c0 .013-.005.023-.015.031-.01.009-.021.013-.032.013-.017 0-.025-.008-.026-.025-.009-.213-.013-.33-.013-.353s.001-.05.003-.083c.001-.012.009-.018.023-.018.035 0 .055.014.06.043.002.015.003.026.003.035l-.004.063z" transform="matrix(109.339 0 0 109.339 281.8848 167.9587)"/><path d="m.063-.467.05.001c.011 0 .018 0 .019-.001v-.205c.001-.011.006-.021.017-.029s.021-.012.03-.012.017.003.023.009c.005.006.008.015.007.028s-.001.082-.001.208l.117-.004c.02 0 .03.012.03.035 0 .017-.005.03-.015.039-.011.009-.022.013-.033.014-.012.001-.024.001-.035.001l-.061-.001c0 .027.003.081.009.162.005.081.01.133.013.156.003.024.004.039.002.046s-.006.012-.011.015c-.009.004-.02.006-.035.006s-.023-.008-.026-.024c-.013-.087-.022-.207-.027-.36-.006.001-.029.001-.069.001s-.06-.012-.06-.035c0-.033.019-.05.056-.05z" transform="matrix(109.339 0 0 109.339 306.3758 167.9587)"/><path d="m.317-.467c.029 0 .044.025.044.075v.017l-.002.07c-.001.022-.001.044-.001.065l.015.226c0 .017-.017.025-.051.025h-.014c-.008 0-.013-.003-.016-.009s-.004-.013-.001-.022c.002-.009.001-.018-.003-.029-.031.033-.071.049-.122.049-.094 0-.141-.073-.141-.218 0-.081.015-.142.046-.183.03-.041.073-.062.13-.062.027 0 .053.005.08.014.009-.012.021-.018.036-.018zm-.104.091c-.038 0-.066.011-.085.033s-.028.062-.028.121c0 .099.027.148.08.148.014 0 .03-.006.047-.019s.028-.027.035-.043c.013-.036.019-.075.019-.118s-.005-.074-.015-.093c-.011-.019-.028-.029-.053-.029z" transform="matrix(109.339 0 0 109.339 343.9888 167.9587)"/><path d="m.035-.647c.002-.025.006-.042.013-.05.006-.007.016-.011.03-.011.029 0 .043.012.043.035 0 .018-.002.065-.004.141-.003.076-.005.144-.005.204s.002.108.007.145c.008.064.019.096.034.096s.026-.01.033-.031c.003-.008.009-.015.016-.022.007-.006.017-.009.028-.009.023 0 .035.02.035.059 0 .021-.011.042-.034.063s-.046.032-.069.032-.041-.004-.054-.012c-.014-.007-.025-.019-.033-.034-.009-.015-.016-.03-.02-.045-.006-.014-.009-.031-.011-.052-.004-.033-.007-.087-.008-.161-.002-.073-.003-.144-.003-.211s.001-.112.002-.137z" transform="matrix(109.339 0 0 109.339 386.8498 167.9587)"/><path d="m.423-.656c.007-.004.015-.006.026-.006s.02.004.029.013.013.02.013.032c0 .261.001.418.004.472.002.055.003.083.003.084 0 .015-.004.028-.012.041s-.017.02-.026.02c-.01 0-.017-.001-.022-.002-.006-.001-.01-.002-.014-.003s-.008-.004-.012-.008l-.01-.01c-.003-.003-.006-.008-.01-.016-.005-.007-.008-.013-.011-.018s-.007-.013-.012-.025c-.006-.011-.019-.035-.037-.071-.019-.036-.037-.068-.052-.097-.053-.097-.102-.173-.147-.229 0 .217-.006.367-.018.451-.002.016-.014.024-.037.024-.011 0-.02-.003-.026-.008-.007-.005-.011-.014-.011-.026s.003-.078.008-.198.007-.195.007-.225v-.056c0-.048.004-.075.011-.081s.015-.009.023-.009c.037 0 .093.06.168.18.015.023.043.072.084.146.041.075.066.121.074.138l-.012-.415c0-.057.006-.09.019-.098z" transform="matrix(109.339 0 0 109.339 441.0818 167.9587)"/><path d="m.104-.632c.012 0 .023.006.034.017s.016.023.016.035c0 .013-.006.025-.017.038-.012.013-.024.019-.037.019s-.024-.005-.034-.016c-.011-.011-.016-.024-.016-.041 0-.032.017-.049.052-.052zm.042.524.001.07c0 .013-.005.023-.015.031-.01.009-.021.013-.032.013-.017 0-.025-.008-.026-.025-.009-.213-.013-.33-.013-.353s.001-.05.003-.083c.001-.012.009-.018.023-.018.035 0 .055.014.06.043.002.015.003.026.003.035l-.004.063z" transform="matrix(109.339 0 0 109.339 499.2498 167.9587)"/><path d="m.076-.031-.011-.406c0-.013.004-.023.013-.031s.017-.012.026-.012c.021 0 .034.009.037.027s.004.037.004.056c.036-.047.081-.071.135-.071.083 0 .124.094.124.283v.078c0 .036-.002.061-.006.077-.005.02-.019.03-.043.03-.016 0-.024-.011-.024-.032l.001-.056c0-.077-.002-.13-.007-.159-.005-.028-.01-.05-.015-.067-.011-.036-.03-.054-.055-.054-.033 0-.057.012-.07.036-.015.026-.023.057-.026.092-.005.062-.007.128-.007.197 0 .013-.005.024-.015.032s-.022.012-.036.012c-.017 0-.025-.011-.025-.032z" transform="matrix(109.339 0 0 109.339 523.7418 167.9587)"/><path d="m.111-.627c.012 0 .023.006.034.017s.016.023.016.035c0 .013-.006.025-.017.038-.012.013-.024.019-.037.019s-.024-.005-.034-.016c-.011-.011-.016-.024-.016-.041 0-.032.017-.049.052-.052zm-.032.196c-.001-.011.002-.02.011-.027.009-.006.022-.01.039-.01s.027.008.029.025c.009.082.014.16.014.233s-.002.147-.007.221c-.005.073-.015.13-.032.17-.023.053-.064.079-.123.079-.03 0-.056-.009-.078-.028s-.033-.041-.033-.067c0-.014.005-.025.015-.032s.021-.011.033-.011.021.003.027.009.01.013.012.02c.007.019.018.029.035.029.016 0 .03-.013.042-.039.011-.026.019-.061.023-.106.003-.045.005-.092.005-.142 0-.157-.004-.265-.012-.324z" transform="matrix(109.339 0 0 109.339 573.1628 167.9587)"/><path d="m.317-.467c.029 0 .044.025.044.075v.017l-.002.07c-.001.022-.001.044-.001.065l.015.226c0 .017-.017.025-.051.025h-.014c-.008 0-.013-.003-.016-.009s-.004-.013-.001-.022c.002-.009.001-.018-.003-.029-.031.033-.071.049-.122.049-.094 0-.141-.073-.141-.218 0-.081.015-.142.046-.183.03-.041.073-.062.13-.062.027 0 .053.005.08.014.009-.012.021-.018.036-.018zm-.104.091c-.038 0-.066.011-.085.033s-.028.062-.028.121c0 .099.027.148.08.148.014 0 .03-.006.047-.019s.028-.027.035-.043c.013-.036.019-.075.019-.118s-.005-.074-.015-.093c-.011-.019-.028-.029-.053-.029z" transform="matrix(109.339 0 0 109.339 598.8568 167.9587)"/><path d="m.055-.34c0-.039.014-.071.042-.094s.061-.035.098-.035.072.007.106.02.051.031.051.053c0 .011-.004.02-.013.027s-.016.01-.022.01c-.007 0-.012 0-.015-.001-.004 0-.018-.006-.04-.018-.023-.012-.045-.018-.064-.018s-.036.005-.049.014c-.014.01-.021.024-.021.043s.008.033.024.044c.015.011.043.02.082.027.039.008.07.019.091.033.02.014.031.04.031.078 0 .055-.015.094-.043.117-.029.023-.065.035-.106.035s-.077-.006-.105-.017c-.029-.011-.044-.028-.044-.051 0-.026.013-.039.039-.039.007 0 .021.005.044.014s.045.014.068.014c.022 0 .039-.007.051-.022.011-.014.017-.03.017-.049s-.008-.032-.023-.041c-.015-.008-.039-.015-.07-.02s-.054-.011-.069-.017c-.04-.016-.06-.052-.06-.107z" transform="matrix(109.339 0 0 109.339 641.7178 167.9587)"/></g></svg>