<svg clip-rule="evenodd" fill-rule="evenodd" stroke-linecap="round" stroke-linejoin="round" stroke-miterlimit="1.5" viewBox="0 0 60 60" xmlns="http://www.w3.org/2000/svg"><g fill="none" transform="matrix(1.10863 0 0 1.10568 -8417.081 -2456.588)"><path d="m7592.32 2221.79h54.121v54.265h-54.121z"/><g stroke="#a23341"><path d="m7779.57 2199.74c4.06-.94 19.01 7.15 23.98 9.85 4.97 2.71 18.09 8.77 18.98 11.85s-11.31 23.93-16.18 24.95c-4.87 1.01-39.58-15.62-40.15-22.1s9.3-23.61 13.37-24.55z" stroke-width="5.3" transform="matrix(.819418 0 0 .88278 1232.5 287.41)"/><path d="m7807.05 2245.27c.99-7.96-1.31-17.3-1.31-17.3" stroke-width="5" transform="matrix(.902013 0 0 .904422 587.103 239.806)"/><path d="m7770.56 2227.97c5.29-2.43 16.03-5.48 16.03-5.48" stroke-width="5" transform="matrix(.902013 0 0 .904422 587.103 239.806)"/><path d="m7784.9 2203.39c.87 3.97 1.37 32.48 33.62 16.45" stroke-width="4.69" transform="matrix(.901161 0 0 1.02311 591.922 -21.2579)"/></g></g></svg>