<svg height="700pt" preserveAspectRatio="xMidYMid meet" viewBox="0 0 700 700" width="700pt" xmlns="http://www.w3.org/2000/svg"><path d="m3854 6806c-56-18-125-67-167-118l-35-42-89 46c-193 101-231 77-220-136 4-61 9-123 12-139 4-20 1-29-12-34-40-15-126-76-175-125-183-182-222-411-96-556l29-33-50-45c-28-25-56-60-62-79l-12-34-41 28c-91 63-274 139-375 156-19 3-37 8-41 10s-31 7-61 11c-151 19-250-1-298-62-51-64-8-144 122-228 76-50 182-146 147-134-9 3-49 15-90 26-288 80-474 49-623-103-71-72-110-141-162-285-24-68-53-136-64-151-24-32-27-57-8-65 8-3 46 4 86 15 56 16 95 19 169 17 101-4 239-35 252-57 9-14-10-82-50-184-22-55-26-75-18-97 16-46 57-42 258 23 141 46 237 71 330 85l35 6-41-34c-48-39-113-124-145-190-19-39-20-49-9-63s17-13 59 11c131 73 256 62 363-32 27-25 52-43 56-41 80 41 154 64 230 70 64 6 59-8-11-33s-141-63-174-93c-48-43-15-83 78-92 93-10 174-24 212-38l37-12-39-63c-47-77-47-77-64-64-29 24-105 44-169 43-73 0-136-22-194-66l-33-25-47 30c-84 53-159 50-228-10-53-47-95-162-74-203 7-14 3-19-19-27-75-27-130-66-155-107-20-35-18-125 4-167l16-30-42-20c-56-28-121-95-136-140-15-48-6-97 26-135l25-29-23-7c-92-28-146-143-104-223 14-27 79-92 127-128l26-20-118-149c-65-83-125-158-132-167-10-13-35-19-97-23-113-8-132-12-142-27-10-14-3-102 12-163 9-39 8-41-28-75-89-82-185-142-289-182-69-25-77-35-62-75 27-73 0-235-59-350-22-42-108-155-124-161-12-5-9-38 5-50 9-7 37-6 95 4 260 45 482 228 756 624 70 101 251 336 266 345 17 10 97-83 114-130 13-41 14-134 1-175-3-10-8-27-10-37-6-28-71-213-120-337-45-116-103-299-110-351-2-16-6-39-8-50-15-69-24-170-26-277-1-26-1-26-43-14-95 28-282-3-400-66l-58-31-43 21c-60 29-84 35-156 38-186 6-309-93-290-233 18-129 98-227 204-248 92-18 137-22 233-19 118 3 189 19 303 68l76 32 34-23c51-36 153-82 212-98 106-28 249-5 347 55l46 27 49-28c113-65 284-76 396-26l56 24 55-23c67-28 174-42 243-32 27 4 80 22 117 41 52 25 71 31 78 22 6-7 38-25 73-41 50-22 75-28 129-27 80 2 129 24 199 91l47 44 33-16c177-83 378-69 440 31 26 42 26 95-1 167-31 81-133 184-210 210-91 32-222 26-310-15-46-21-105-52-135-70l-30-17-48 43c-66 58-154 104-208 107l-44 3-33 100c-30 94-85 289-96 345-54 266-66 354-71 535-8 283 36 433 218 758 128 227 162 306 187 435 27 135-7 304-90 460l-40 73 65 29c92 41 193 71 240 71 47 1 138-37 175-72 14-13 43-46 65-73 45-57 80-80 155-102 77-22 102-37 166-97 77-72 98-84 118-68 9 7 28 38 43 70 45 95 44 233-4 357-5 14-3 16 13 10 26-10 271-74 309-81 17-2 39-7 50-9 119-23 256-24 309-2 64 27 58 75-20 154-18 18-31 40-30 49 4 28-24 124-49 171-28 50-22 52 60 21 68-25 163-30 230-12 57 15 147 22 352 27 190 6 236 27 217 103-15 60-105 178-231 300-158 155-192 169-392 159-73-4-138-9-142-12-5-3-9 0-9 5 0 6 4 11 8 11 15 0 160 140 182 175 29 47 32 71 10 97-15 19-27 23-86 23-70 0-128-7-217-27-27-5-54-11-60-12-55-12-286-81-337-101-136-53-201-81-243-102-46-23-50-23-95-9-163 51-303 37-500-50-30-13-56-23-58-21-2 1 21 61 51 132 30 72 56 133 57 137 2 4 16 9 32 12 37 7 60 28 103 99 35 55 38 58 67 50 38-10 242-10 311-1 217 29 375 158 380 312l2 50 105 2c147 2 192 31 169 110-11 40-60 110-114 164-43 43-45 46-31 70 35 61 52 180 49 335-4 168-5 182-36 280-32 105-69 151-146 181-24 9-43 18-43 19s9 28 21 61c24 69 34 134 25 168-14 56-108 54-252-5-29-11-34-10-70 18-71 56-175 104-299 139-74 21-260 27-311 10zm-668-1386c18 0 22-8 28-52 17-128 164-320 297-387l56-28-38-97c-21-54-39-100-42-102-2-2-21 37-42 88-35 84-106 228-172 348-22 39-61 100-138 214l-19 29 24-6c14-4 35-7 46-7z" transform="matrix(.1 0 0 -.1 0 700)"/></svg>